<?xml version="1.0" encoding="UTF-8"?>
<!DOCTYPE svg PUBLIC "-//W3C//DTD SVG 1.1//EN" "http://www.w3.org/Graphics/SVG/1.1/DTD/svg11.dtd">
<!-- Creator: CorelDRAW -->
<svg xmlns="http://www.w3.org/2000/svg" xml:space="preserve" width="456px" height="456px" version="1.1" style="shape-rendering:geometricPrecision; text-rendering:geometricPrecision; image-rendering:optimizeQuality; fill-rule:evenodd; clip-rule:evenodd"
viewBox="0 0 456 456"
 xmlns:xlink="http://www.w3.org/1999/xlink"
 xmlns:xodm="http://www.corel.com/coreldraw/odm/2003"
 xmlns:svgjs="http://svgjs.dev/svgjs"
 data-background-color="#c8f7dd">
 <defs>
  <style type="text/css">
   <![CDATA[
    .str0 {stroke:#FEFEFE;stroke-width:4.17;stroke-miterlimit:2.61313}
    .fil5 {fill:#373435}
    .fil4 {fill:#FFF212}
    .fil3 {fill:#EC268F}
    .fil2 {fill:#00AFEF}
    .fil1 {fill:#FEFEFE;fill-rule:nonzero}
    .fil6 {fill:#FEFEFE;fill-rule:nonzero}
    .fil0 {fill:#0077BD;fill-rule:nonzero}
   ]]>
  </style>
    <mask id="id0">
  <linearGradient id="id1" gradientUnits="userSpaceOnUse" x1="235.23" y1="249.82" x2="235.23" y2="303.78">
   <stop offset="0" style="stop-opacity:1; stop-color:white"/>
   <stop offset="0.619608" style="stop-opacity:0.501961; stop-color:white"/>
   <stop offset="1" style="stop-opacity:0; stop-color:white"/>
  </linearGradient>
     <rect style="fill:url(#id1)" x="180.56" y="249.92" width="25.47" height="56.24"/>
    </mask>
    <mask id="id2">
  <linearGradient id="id3" gradientUnits="userSpaceOnUse" x1="231.48" y1="250.96" x2="231.48" y2="302.75">
   <stop offset="0" style="stop-opacity:1; stop-color:white"/>
   <stop offset="0.619608" style="stop-opacity:0.501961; stop-color:white"/>
   <stop offset="1" style="stop-opacity:0; stop-color:white"/>
  </linearGradient>
     <rect style="fill:url(#id3)" x="181.7" y="251.05" width="23.2" height="53.98"/>
    </mask>
    <mask id="id4">
  <linearGradient id="id5" gradientUnits="userSpaceOnUse" x1="232.62" y1="249.82" x2="232.62" y2="303.78">
   <stop offset="0" style="stop-opacity:1; stop-color:white"/>
   <stop offset="0.619608" style="stop-opacity:0.501961; stop-color:white"/>
   <stop offset="1" style="stop-opacity:0; stop-color:white"/>
  </linearGradient>
     <rect style="fill:url(#id5)" x="207.15" y="249.92" width="25.47" height="56.24"/>
    </mask>
    <mask id="id6">
  <linearGradient id="id7" gradientUnits="userSpaceOnUse" x1="231.48" y1="250.96" x2="231.48" y2="302.75">
   <stop offset="0" style="stop-opacity:1; stop-color:white"/>
   <stop offset="0.619608" style="stop-opacity:0.501961; stop-color:white"/>
   <stop offset="1" style="stop-opacity:0; stop-color:white"/>
  </linearGradient>
     <rect style="fill:url(#id7)" x="208.28" y="251.05" width="23.2" height="53.98"/>
    </mask>
    <mask id="id8">
  <linearGradient id="id9" gradientUnits="userSpaceOnUse" x1="230.01" y1="249.82" x2="230.01" y2="303.78">
   <stop offset="0" style="stop-opacity:1; stop-color:white"/>
   <stop offset="0.619608" style="stop-opacity:0.501961; stop-color:white"/>
   <stop offset="1" style="stop-opacity:0; stop-color:white"/>
  </linearGradient>
     <rect style="fill:url(#id9)" x="233.73" y="249.92" width="25.47" height="56.24"/>
    </mask>
    <mask id="id10">
  <linearGradient id="id11" gradientUnits="userSpaceOnUse" x1="231.48" y1="250.96" x2="231.48" y2="302.75">
   <stop offset="0" style="stop-opacity:1; stop-color:white"/>
   <stop offset="0.619608" style="stop-opacity:0.501961; stop-color:white"/>
   <stop offset="1" style="stop-opacity:0; stop-color:white"/>
  </linearGradient>
     <rect style="fill:url(#id11)" x="234.87" y="251.05" width="23.2" height="53.98"/>
    </mask>
    <mask id="id12">
  <linearGradient id="id13" gradientUnits="userSpaceOnUse" x1="227.4" y1="249.82" x2="227.4" y2="303.78">
   <stop offset="0" style="stop-opacity:1; stop-color:white"/>
   <stop offset="0.619608" style="stop-opacity:0.501961; stop-color:white"/>
   <stop offset="1" style="stop-opacity:0; stop-color:white"/>
  </linearGradient>
     <rect style="fill:url(#id13)" x="260.32" y="249.92" width="25.47" height="56.24"/>
    </mask>
    <mask id="id14">
  <linearGradient id="id15" gradientUnits="userSpaceOnUse" x1="231.48" y1="250.96" x2="231.48" y2="302.75">
   <stop offset="0" style="stop-opacity:1; stop-color:white"/>
   <stop offset="0.619608" style="stop-opacity:0.501961; stop-color:white"/>
   <stop offset="1" style="stop-opacity:0; stop-color:white"/>
  </linearGradient>
     <rect style="fill:url(#id15)" x="261.45" y="251.05" width="23.2" height="53.98"/>
    </mask>
 </defs>
 <g id="Layer_x0020_1">
  <metadata id="CorelCorpID_0Corel-Layer"/>
  <path class="fil0" d="M7877.18 -503.08c-47.43,-57.83 -137.18,-87.57 -232.42,-118.95 -40.86,-13.5 -83,-27.55 -124.23,-44.51 -41.6,-17.15 -82.46,-39.22 -122.23,-60.39 -80.82,-43.41 -164.37,-88.29 -249.2,-88.29 -84.65,0 -168.2,44.88 -249.02,88.29 -39.77,21.35 -80.82,43.42 -122.41,60.57 -41.05,16.97 -83.38,30.83 -124.24,44.51 -95.23,31.57 -184.98,61.3 -232.41,118.95 -63.31,77.17 -61.85,191.55 -60.39,312.51 0.18,18.24 0.37,36.3 0.36,54.18 0,17.88 -0.18,35.94 -0.54,54.18 -1.46,121.13 -2.92,235.34 60.38,312.69 47.43,57.65 137.19,87.38 232.24,118.94 40.86,13.5 83,27.55 124.42,44.51 41.59,17.15 82.46,39.04 122.04,60.39 81,43.6 164.55,88.48 249.2,88.48 84.83,0 168.39,-44.88 249.2,-88.3 39.77,-21.34 80.64,-43.42 122.23,-60.38 41.05,-16.97 83.01,-30.83 123.69,-44.34 95.78,-31.74 185.54,-61.47 232.97,-119.12 63.3,-77.17 61.84,-191.55 60.38,-312.5 -0.18,-18.43 -0.55,-36.49 -0.55,-54.37 0,-17.88 0.19,-35.94 0.55,-54 2.01,-121.5 3.46,-235.88 -60.02,-313.05l0 0zm58.75 -48.16c-85.02,-103.63 -247.56,-128.25 -386.39,-185.54 -124.24,-51.08 -250.67,-154.52 -400.26,-154.52 -149.59,0 -276.01,103.44 -400.25,154.52 -139.02,57.28 -301.38,81.91 -386.39,185.54 -92.31,112.37 -77.36,270.91 -77.36,415.03 0,143.93 -14.96,302.65 77.17,415.03 85.01,103.62 247.56,128.24 386.4,185.53 124.23,51.26 250.66,154.52 400.25,154.52 149.59,0 276.02,-103.26 400.25,-154.52 139.02,-57.28 301.38,-81.91 386.39,-185.53 92.13,-112.38 77.17,-270.91 77.17,-415.03 0.37,-144.12 15.32,-302.66 -76.98,-415.03l0 0zm23.35 468.66c1.64,125.51 3.1,243.55 -65.31,326.92 -51.45,62.57 -144.13,93.4 -242.27,125.88 -40.86,13.5 -82.65,27.36 -122.78,43.96 -40.5,16.6 -80.82,38.31 -119.86,59.29 -83.55,44.88 -169.47,91.03 -259.78,91.03 -90.3,0 -176.22,-46.15 -259.41,-90.85 -39.23,-21.16 -79.73,-42.87 -120.23,-59.47 -40.68,-16.78 -82.46,-30.64 -122.95,-43.96 -98.33,-32.48 -191.01,-63.31 -242.28,-125.88 -68.23,-83.19 -66.77,-201.41 -65.31,-326.55 0.19,-18.24 0.55,-36.12 0.55,-54 0,-17.88 -0.18,-35.76 -0.36,-54.01 -1.65,-125.15 -3.11,-243.36 65.31,-326.54 51.44,-62.58 144.12,-93.23 242.26,-125.88 40.69,-13.51 82.46,-27.37 122.96,-43.97 40.5,-16.78 81,-38.49 120.22,-59.47 83.19,-44.7 169.3,-91.03 259.42,-91.03 90.12,0 176.23,46.15 259.42,90.84 39.22,21.17 79.72,42.88 120.23,59.48 40.5,16.78 82.46,30.47 122.77,43.96 98.15,32.48 191.01,63.31 242.27,125.88 68.41,83.38 66.95,201.41 65.31,326.56 -0.18,18.42 -0.55,36.3 -0.55,53.99 0,17.88 0.19,35.76 0.37,53.82l0 0z" text-anchor="none" data-fill-palette-color="tertiary"/>
  <path id="text-0" class="fil1" d="M7592.04 51.92l0 0c-18.31,-0.76 -34.75,-2.35 -49.31,-4.77 -14.62,-2.35 -28.74,-6.23 -42.35,-11.64 -13.54,-5.34 -24.95,-12.08 -34.24,-20.22 -9.22,-8.13 -16.88,-18.56 -22.98,-31.28 -6.17,-12.78 -9.95,-27.53 -11.35,-44.25l0 0c0,-2.99 1.56,-4.71 4.67,-5.16l0 0c0.95,0.32 2.51,0.48 4.67,0.48l0 0c12.91,0 32.46,-0.32 58.66,-0.95 26.26,-0.64 45.85,-0.96 58.75,-0.96l0 0c3.25,0 5.79,1.05 7.63,3.15 1.85,2.1 3.37,4.67 4.58,7.73 1.15,2.99 2.55,6.01 4.2,9.06 1.59,3.05 4.39,5.63 8.39,7.72 3.95,2.1 9,3.15 15.17,3.15l0 0c7.63,0 14.37,-2.16 20.22,-6.48 5.78,-4.26 8.68,-10.02 8.68,-17.27l0 0c0,-4.83 -2.48,-9.28 -7.44,-13.35 -4.96,-4.01 -11.51,-7.28 -19.65,-9.82 -8.14,-2.61 -15.9,-4.81 -23.27,-6.59 -7.38,-1.78 -14.94,-3.3 -22.7,-4.57 -7.76,-1.34 -12.27,-2.17 -13.55,-2.48l0 0c-37.7,-10.24 -64.82,-22.99 -81.35,-38.25 -16.54,-15.2 -24.8,-35.99 -24.8,-62.38l0 0c0,-18.63 3.4,-35.35 10.2,-50.17 6.87,-14.81 15.8,-26.92 26.8,-36.34 11.01,-9.41 24.04,-17.23 39.11,-23.46 15.07,-6.29 30.3,-10.74 45.69,-13.35 15.32,-2.54 31.22,-3.82 47.68,-3.82l0 0c43.62,0 78.41,8.08 104.35,24.23l0 0c9.47,9.47 16.4,16.66 20.79,21.55 4.45,4.9 8.74,10.59 12.88,17.08 4.07,6.55 6.93,12.97 8.58,19.26 1.65,6.3 2.77,14.02 3.34,23.18l0 0 -8.39 8.39c-31.8,1.21 -67.5,1.82 -107.11,1.82l0 0c-4.96,0 -8.94,-0.54 -11.93,-1.63 -3.05,-1.08 -5.08,-2.48 -6.1,-4.19 -1.02,-1.72 -2.03,-3.5 -3.05,-5.34 -0.96,-1.85 -1.88,-3.63 -2.77,-5.34 -0.82,-1.72 -2.61,-3.12 -5.34,-4.2 -2.73,-1.08 -6.36,-1.62 -10.87,-1.62l0 0c-1.21,0 -3.18,0.22 -5.92,0.67 -2.73,0.44 -5.91,1.17 -9.53,2.19 -3.63,1.02 -6.78,2.57 -9.45,4.67 -2.6,2.1 -3.91,4.55 -3.91,7.35l0 0c0,3.43 1.75,6.55 5.25,9.34 3.5,2.8 7.18,4.8 11.06,6.01 3.88,1.27 8.68,2.64 14.41,4.1 5.72,1.47 9.28,2.42 10.68,2.86l0 0c33.89,8.59 54.08,13.87 60.56,15.84l0 0c34.02,10.74 58.09,24.8 72.2,42.15l0 0c13.04,16.16 19.56,36.41 19.56,60.76l0 0c0,14.75 -1.91,28.2 -5.73,40.35 -3.81,12.08 -8.8,22.31 -14.97,30.71 -6.23,8.39 -13.99,15.83 -23.27,22.31 -9.35,6.55 -18.79,11.77 -28.33,15.65 -9.54,3.88 -20.38,7.15 -32.52,9.82 -12.09,2.61 -23.21,4.48 -33.39,5.63 -10.17,1.21 -21.23,2.1 -33.19,2.67z" data-fill-palette-color="quaternary"/>
  <path id="text-0_8" class="fil1" d="M7403 -49.09l0 0c0,2.8 0.16,7.09 0.48,12.88 0.32,5.85 0.54,11.41 0.67,16.69 0.19,5.28 0.32,11.13 0.38,17.55 0.06,6.49 -0.19,12.3 -0.76,17.46 -0.51,5.21 -1.31,10.1 -2.39,14.68 -1.08,4.58 -2.76,8.11 -5.05,10.59 -2.23,2.48 -4.96,3.72 -8.21,3.72l0 0 -106.25 0c-7.44,-5.72 -11.16,-27.12 -11.16,-64.19l0 0c0,-13.54 0.1,-29.82 0.29,-48.83 0.13,-19.02 0.19,-32.56 0.19,-40.63l0 0 0 -16.31c0,-1.4 -0.13,-4.07 -0.38,-8.01 -0.19,-3.95 -0.22,-7.03 -0.1,-9.26l0 0c-6.16,22.51 -13.76,54.75 -22.79,96.72 -9.03,41.9 -15.23,69.91 -18.6,84.02l0 0c-1.59,4.33 -8.74,6.49 -21.46,6.49l0 0 -82.41 0c-10.11,0 -16.02,-2.64 -17.74,-7.92l0 0 -22.32 -97.28c-2.03,-9.92 -4.26,-20.25 -6.67,-31 -2.42,-10.68 -5.25,-22.86 -8.49,-36.53 -3.24,-13.67 -5.66,-23.78 -7.25,-30.33l0 0c-1.84,49.72 -2.76,87.62 -2.76,113.69l0 0 0 41.01c0,18.32 0.15,32.11 0.47,41.4l0 0c-0.95,3.43 -2.67,5.15 -5.15,5.15l0 0 -21.84 0c-9.16,0 -22.6,0.06 -40.34,0.19 -17.68,0.19 -31.1,0.28 -40.25,0.28l0 0c-8.4,0 -12.59,-1.39 -12.59,-4.19l0 0 0 -345.56c0,-1.39 0.35,-2.6 1.04,-3.62 0.7,-1.02 1.78,-1.81 3.25,-2.38 1.52,-0.51 2.99,-0.93 4.38,-1.24 1.4,-0.32 3.18,-0.51 5.35,-0.58 2.16,-0.06 3.94,-0.16 5.34,-0.28 1.4,-0.07 3.18,-0.07 5.34,0 2.16,0.12 3.56,0.19 4.2,0.19l0 0 27.46 0c44.26,0 75.42,0.6 93.47,1.81 18.13,1.27 31.99,1.91 41.59,1.91l0 0c3.75,20.79 9.66,51.66 17.74,92.61l0 0 17.64 92.71 37.3 -188.18c0,0 0.6,0.15 1.81,0.47 1.27,0.32 2.22,0.48 2.86,0.48l0 0c16.6,0 41.11,-0.22 73.54,-0.67 32.43,-0.44 56.97,-0.67 73.63,-0.67l0 0 34.43 0c4.32,0.45 6.49,4.77 6.49,12.98l0 0c3.43,150.44 5.3,234.43 5.62,251.98z" data-fill-palette-color="quaternary"/>
  <path id="text-0_9" class="fil1" d="M6720.29 -229.35l0 0c-6.36,0 -12.05,1.49 -17.07,4.48 -5.09,2.93 -9.22,6.49 -12.4,10.69 -3.18,4.19 -5.95,9.82 -8.3,16.88 -2.29,7.06 -3.98,13.41 -5.06,19.07 -1.08,5.66 -1.94,12.81 -2.57,21.46 -0.64,8.59 -0.99,15.26 -1.05,20.03 -0.06,4.71 -0.1,10.78 -0.1,18.22l0 0c0,7.18 0.26,13.99 0.77,20.41 0.57,6.42 1.75,13.26 3.53,20.51 1.78,7.18 4.1,13.48 6.96,18.88 2.86,5.34 6.83,9.82 11.92,13.45 5.02,3.69 10.78,5.66 17.26,5.91l0 0c6.87,0 12.94,-1.11 18.22,-3.34 5.28,-2.22 9.7,-5.08 13.26,-8.58 3.56,-3.5 6.58,-8.2 9.06,-14.12 2.48,-5.91 4.39,-11.57 5.72,-16.97 1.34,-5.47 2.35,-12.24 3.05,-20.32 0.7,-8.07 1.12,-15.01 1.24,-20.79 0.2,-5.85 0.29,-13.19 0.29,-22.03l0 0c0,-6.49 -0.19,-12.53 -0.57,-18.13 -0.45,-5.59 -1.11,-11.82 -2.01,-18.69 -0.95,-6.8 -2.51,-12.81 -4.67,-18.02 -2.16,-5.22 -4.8,-10.12 -7.91,-14.69 -3.12,-4.58 -7.19,-8.11 -12.21,-10.59 -5.09,-2.48 -10.88,-3.72 -17.36,-3.72zm-185.32 92.23l0 0 0 -25.56c1.53,-21.75 6.26,-41.59 14.21,-59.52 7.88,-17.93 17.93,-33.03 30.14,-45.3 12.14,-12.27 26.23,-22.64 42.25,-31.09 15.96,-8.46 32.68,-14.63 50.17,-18.51 17.49,-3.88 35.54,-5.82 54.18,-5.82l0 0c10.23,0 20.88,0.86 31.95,2.58 11.12,1.72 22.89,4.42 35.29,8.11 12.4,3.75 24.32,9.22 35.76,16.4 11.39,7.25 20.83,15.77 28.33,25.56l0 0c15.32,18.76 26.45,38.41 33.38,58.95 6.87,20.6 10.3,43.46 10.3,68.57l0 0c0.51,52.52 -10.96,94.78 -34.43,126.76l0 0 -10.2 13.93c-9.03,12.39 -21.94,22.76 -38.73,31.09 -16.72,8.33 -33.47,14.08 -50.26,17.26 -16.79,3.18 -33.7,4.77 -50.74,4.77l0 0c-20.03,0 -38.5,-2.03 -55.42,-6.1 -16.91,-4.01 -31.5,-9.45 -43.77,-16.31 -12.28,-6.81 -23.21,-15.1 -32.81,-24.9 -9.67,-9.79 -17.55,-20.12 -23.66,-30.99 -6.17,-10.81 -11.22,-22.61 -15.16,-35.39 -3.95,-12.72 -6.74,-25.12 -8.4,-37.2 -1.59,-12.14 -2.38,-24.57 -2.38,-37.29z" data-fill-palette-color="quaternary"/>
  <rect class="fil2 str0" x="6940.52" y="73.67" width="104.55" height="73.73" rx="8.15" ry="10.7"/>
  <rect class="fil3 str0" x="7060.34" y="73.67" width="104.55" height="73.73" rx="8.15" ry="10.7"/>
  <rect class="fil4 str0" x="7180.17" y="73.67" width="104.55" height="73.73" rx="8.15" ry="10.7"/>
  <rect class="fil5 str0" x="7299.99" y="73.67" width="104.55" height="73.73" rx="8.15" ry="10.7"/>
  <path class="fil0" d="M377.84 141.52c-9.77,-13.64 -28.24,-20.65 -47.84,-28.04 -8.41,-3.19 -17.09,-6.5 -25.57,-10.5 -8.56,-4.04 -16.97,-9.24 -25.16,-14.23 -16.63,-10.24 -33.83,-20.82 -51.29,-20.82 -17.42,0 -34.62,10.58 -51.26,20.82 -8.18,5.03 -16.63,10.23 -25.19,14.27 -8.45,4 -17.16,7.27 -25.57,10.5 -19.6,7.44 -38.08,14.45 -47.84,28.04 -13.03,18.19 -12.73,45.15 -12.43,73.67 0.04,4.3 0.08,8.56 0.08,12.77 0,4.22 -0.04,8.47 -0.12,12.77 -0.3,28.56 -0.6,55.48 12.43,73.72 9.77,13.59 28.24,20.6 47.8,28.04 8.41,3.18 17.09,6.49 25.61,10.49 8.56,4.04 16.97,9.2 25.12,14.23 16.67,10.28 33.87,20.86 51.29,20.86 17.46,0 34.66,-10.58 51.3,-20.81 8.18,-5.04 16.59,-10.24 25.15,-14.24 8.45,-4 17.09,-7.27 25.46,-10.45 19.72,-7.48 38.19,-14.49 47.95,-28.08 13.03,-18.19 12.73,-45.16 12.43,-73.67 -0.04,-4.34 -0.11,-8.6 -0.11,-12.82 0,-4.21 0.04,-8.47 0.11,-12.73 0.41,-28.64 0.71,-55.6 -12.35,-73.79l0 0zm12.09 -11.36c-17.5,-24.42 -50.96,-30.23 -79.53,-43.73 -25.57,-12.05 -51.59,-36.43 -82.38,-36.43 -30.79,0 -56.81,24.38 -82.39,36.43 -28.61,13.5 -62.03,19.31 -79.52,43.73 -19,26.49 -15.93,63.87 -15.93,97.84 0,33.93 -3.08,71.35 15.89,97.84 17.49,24.42 50.95,30.23 79.53,43.73 25.57,12.09 51.59,36.43 82.38,36.43 30.79,0 56.81,-24.34 82.38,-36.43 28.61,-13.5 62.03,-19.31 79.53,-43.73 18.96,-26.49 15.88,-63.87 15.88,-97.84 0.08,-33.97 3.16,-71.35 -15.84,-97.84l0 0zm4.8 110.48c0.34,29.59 0.64,57.42 -13.44,77.07 -10.59,14.75 -29.66,22.02 -49.86,29.67 -8.41,3.19 -17.01,6.46 -25.27,10.37 -8.34,3.91 -16.64,9.03 -24.67,13.97 -17.2,10.58 -34.89,21.46 -53.47,21.46 -18.59,0 -36.28,-10.88 -53.4,-21.41 -8.07,-4.99 -16.41,-10.11 -24.74,-14.02 -8.38,-3.96 -16.98,-7.23 -25.31,-10.37 -20.24,-7.65 -39.31,-14.92 -49.87,-29.67 -14.04,-19.61 -13.74,-47.48 -13.44,-76.98 0.04,-4.3 0.11,-8.51 0.11,-12.73 0,-4.22 -0.03,-8.43 -0.07,-12.73 -0.34,-29.5 -0.64,-57.37 13.44,-76.98 10.59,-14.75 29.67,-21.98 49.87,-29.67 8.37,-3.19 16.97,-6.46 25.3,-10.37 8.34,-3.96 16.68,-9.07 24.75,-14.02 17.12,-10.53 34.85,-21.46 53.39,-21.46 18.55,0 36.28,10.88 53.4,21.42 8.07,4.99 16.41,10.1 24.74,14.02 8.34,3.95 16.98,7.18 25.27,10.36 20.21,7.66 39.32,14.93 49.87,29.68 14.08,19.65 13.78,47.48 13.44,76.98 -0.04,4.34 -0.11,8.56 -0.11,12.73 0,4.21 0.04,8.43 0.07,12.68l0 0z" text-anchor="none" data-fill-palette-color="tertiary"/>
  <path id="text-0_10" class="fil1" d="M326.25 246.23l0 0c-4.06,-0.17 -7.71,-0.52 -10.94,-1.06 -3.25,-0.52 -6.38,-1.38 -9.4,-2.58 -3,-1.19 -5.53,-2.68 -7.59,-4.49 -2.05,-1.8 -3.75,-4.12 -5.1,-6.94 -1.37,-2.83 -2.21,-6.1 -2.52,-9.82l0 0c0,-0.66 0.34,-1.04 1.03,-1.14l0 0c0.22,0.07 0.56,0.11 1.04,0.11l0 0c2.87,0 7.2,-0.07 13.02,-0.21 5.82,-0.14 10.17,-0.22 13.03,-0.22l0 0c0.72,0 1.28,0.24 1.69,0.7 0.41,0.47 0.75,1.04 1.02,1.72 0.25,0.66 0.56,1.33 0.93,2.01 0.35,0.67 0.97,1.25 1.86,1.71 0.88,0.47 2,0.7 3.37,0.7l0 0c1.69,0 3.18,-0.48 4.48,-1.44 1.29,-0.94 1.93,-2.22 1.93,-3.83l0 0c0,-1.07 -0.55,-2.06 -1.65,-2.96 -1.1,-0.89 -2.56,-1.62 -4.36,-2.18 -1.81,-0.58 -3.53,-1.07 -5.16,-1.46 -1.64,-0.4 -3.32,-0.74 -5.04,-1.02 -1.72,-0.29 -2.72,-0.48 -3.01,-0.55l0 0c-8.36,-2.27 -14.38,-5.1 -18.04,-8.48 -3.67,-3.37 -5.51,-7.99 -5.51,-13.84l0 0c0,-4.13 0.76,-7.84 2.27,-11.13 1.52,-3.29 3.5,-5.98 5.94,-8.06 2.44,-2.09 5.34,-3.83 8.68,-5.21 3.34,-1.4 6.72,-2.38 10.13,-2.96 3.41,-0.57 6.93,-0.85 10.59,-0.85l0 0c9.67,0 17.39,1.79 23.14,5.38l0 0c2.11,2.1 3.64,3.69 4.62,4.78 0.98,1.08 1.94,2.35 2.85,3.79 0.91,1.45 1.54,2.87 1.91,4.27 0.37,1.4 0.61,3.11 0.74,5.14l0 0 -1.86 1.87c-7.06,0.26 -14.98,0.4 -23.77,0.4l0 0c-1.1,0 -1.98,-0.12 -2.64,-0.36 -0.68,-0.24 -1.13,-0.55 -1.36,-0.93 -0.22,-0.38 -0.45,-0.78 -0.67,-1.19 -0.21,-0.41 -0.42,-0.8 -0.62,-1.18 -0.18,-0.38 -0.57,-0.7 -1.18,-0.93 -0.61,-0.24 -1.41,-0.36 -2.41,-0.36l0 0c-0.27,0 -0.71,0.04 -1.32,0.14 -0.6,0.1 -1.31,0.26 -2.11,0.49 -0.81,0.23 -1.5,0.57 -2.1,1.04 -0.57,0.46 -0.86,1.01 -0.86,1.63l0 0c0,0.76 0.38,1.45 1.16,2.07 0.78,0.62 1.59,1.07 2.45,1.33 0.87,0.29 1.93,0.59 3.2,0.91 1.27,0.33 2.06,0.54 2.37,0.64l0 0c7.52,1.9 12,3.07 13.44,3.51l0 0c7.54,2.38 12.88,5.5 16.01,9.35l0 0c2.9,3.59 4.34,8.08 4.34,13.48l0 0c0,3.28 -0.42,6.26 -1.27,8.95 -0.84,2.68 -1.95,4.95 -3.32,6.82 -1.38,1.86 -3.1,3.51 -5.16,4.95 -2.08,1.45 -4.17,2.61 -6.29,3.47 -2.11,0.86 -4.52,1.59 -7.21,2.18 -2.68,0.58 -5.15,0.99 -7.41,1.25 -2.26,0.27 -4.71,0.46 -7.36,0.59z" data-fill-palette-color="quaternary"/>
  <path id="text-0_11" class="fil1" d="M284.31 223.82l0 0c0,0.62 0.03,1.57 0.1,2.86 0.07,1.3 0.12,2.53 0.15,3.7 0.04,1.17 0.07,2.47 0.09,3.89 0.01,1.44 -0.05,2.73 -0.17,3.88 -0.12,1.15 -0.29,2.24 -0.53,3.25 -0.24,1.02 -0.62,1.8 -1.12,2.35 -0.5,0.55 -1.1,0.83 -1.82,0.83l0 0 -23.58 0c-1.65,-1.27 -2.47,-6.02 -2.47,-14.24l0 0c0,-3.01 0.02,-6.62 0.06,-10.84 0.03,-4.21 0.04,-7.22 0.04,-9.01l0 0 0 -3.62c0,-0.31 -0.02,-0.9 -0.08,-1.78 -0.04,-0.87 -0.05,-1.56 -0.02,-2.05l0 0c-1.37,4.99 -3.06,12.15 -5.06,21.46 -2,9.29 -3.38,15.51 -4.13,18.64l0 0c-0.35,0.96 -1.93,1.44 -4.76,1.44l0 0 -18.28 0c-2.24,0 -3.55,-0.59 -3.93,-1.76l0 0 -4.96 -21.58c-0.45,-2.2 -0.94,-4.49 -1.48,-6.88 -0.53,-2.37 -1.16,-5.07 -1.88,-8.1 -0.72,-3.03 -1.26,-5.28 -1.61,-6.73l0 0c-0.41,11.03 -0.61,19.44 -0.61,25.22l0 0 0 9.1c0,4.06 0.03,7.12 0.1,9.18l0 0c-0.21,0.77 -0.59,1.15 -1.14,1.15l0 0 -4.85 0c-2.03,0 -5.01,0.01 -8.95,0.04 -3.92,0.04 -6.89,0.06 -8.92,0.06l0 0c-1.87,0 -2.8,-0.31 -2.8,-0.93l0 0 0 -76.66c0,-0.31 0.08,-0.58 0.23,-0.81 0.16,-0.22 0.4,-0.4 0.72,-0.52 0.34,-0.12 0.67,-0.21 0.98,-0.28 0.31,-0.07 0.7,-0.11 1.18,-0.13 0.48,-0.01 0.88,-0.03 1.19,-0.06 0.31,-0.01 0.7,-0.01 1.18,0 0.48,0.03 0.79,0.04 0.93,0.04l0 0 6.1 0c9.82,0 16.73,0.14 20.73,0.4 4.02,0.29 7.1,0.43 9.23,0.43l0 0c0.83,4.61 2.14,11.46 3.94,20.54l0 0 3.91 20.57 8.27 -41.75c0,0 0.14,0.04 0.41,0.11 0.28,0.07 0.49,0.1 0.63,0.1l0 0c3.68,0 9.12,-0.05 16.32,-0.14 7.19,-0.1 12.64,-0.15 16.33,-0.15l0 0 7.64 0c0.96,0.1 1.44,1.06 1.44,2.87l0 0c0.76,33.38 1.18,52.02 1.25,55.91z" data-fill-palette-color="quaternary"/>
  <path id="text-0_12" class="fil1" d="M132.84 183.83l0 0c-1.41,0 -2.67,0.33 -3.79,0.99 -1.12,0.65 -2.04,1.44 -2.75,2.37 -0.7,0.93 -1.32,2.18 -1.84,3.75 -0.51,1.56 -0.88,2.97 -1.12,4.23 -0.24,1.26 -0.43,2.84 -0.57,4.76 -0.14,1.9 -0.22,3.39 -0.23,4.44 -0.02,1.05 -0.02,2.4 -0.02,4.05l0 0c0,1.59 0.05,3.1 0.17,4.52 0.12,1.43 0.38,2.95 0.78,4.55 0.39,1.6 0.91,2.99 1.54,4.19 0.64,1.19 1.52,2.18 2.65,2.99 1.11,0.82 2.39,1.25 3.83,1.31l0 0c1.52,0 2.87,-0.25 4.04,-0.74 1.17,-0.5 2.15,-1.13 2.94,-1.91 0.79,-0.77 1.46,-1.82 2.01,-3.13 0.55,-1.31 0.97,-2.57 1.27,-3.76 0.3,-1.22 0.52,-2.72 0.68,-4.51 0.15,-1.79 0.24,-3.33 0.27,-4.61 0.05,-1.3 0.07,-2.93 0.07,-4.89l0 0c0,-1.44 -0.05,-2.78 -0.13,-4.02 -0.1,-1.24 -0.25,-2.63 -0.45,-4.15 -0.21,-1.51 -0.55,-2.84 -1.03,-4 -0.48,-1.16 -1.07,-2.24 -1.76,-3.26 -0.69,-1.01 -1.59,-1.8 -2.71,-2.35 -1.12,-0.55 -2.41,-0.82 -3.85,-0.82zm-41.11 20.46l0 0 0 -5.67c0.34,-4.83 1.39,-9.23 3.15,-13.2 1.75,-3.98 3.98,-7.33 6.69,-10.06 2.69,-2.72 5.82,-5.02 9.37,-6.89 3.54,-1.88 7.25,-3.25 11.13,-4.11 3.88,-0.86 7.89,-1.29 12.02,-1.29l0 0c2.27,0 4.63,0.19 7.09,0.57 2.47,0.38 5.08,0.98 7.83,1.8 2.75,0.83 5.4,2.04 7.93,3.64 2.53,1.61 4.62,3.5 6.29,5.67l0 0c3.4,4.16 5.87,8.52 7.4,13.08 1.53,4.57 2.29,9.64 2.29,15.21l0 0c0.11,11.65 -2.43,21.03 -7.64,28.12l0 0 -2.26 3.09c-2.01,2.75 -4.87,5.05 -8.59,6.9 -3.71,1.85 -7.43,3.13 -11.16,3.83 -3.72,0.71 -7.47,1.06 -11.25,1.06l0 0c-4.45,0 -8.54,-0.45 -12.3,-1.36 -3.75,-0.88 -6.99,-2.09 -9.71,-3.61 -2.72,-1.51 -5.15,-3.35 -7.28,-5.53 -2.14,-2.17 -3.89,-4.46 -5.25,-6.87 -1.36,-2.4 -2.49,-5.02 -3.36,-7.85 -0.88,-2.83 -1.5,-5.58 -1.86,-8.26 -0.36,-2.69 -0.53,-5.45 -0.53,-8.27z" data-fill-palette-color="quaternary"/>
  <g>
   <path class="fil6" style="mask:url(#id0)" d="M201.53 252.19l-16.46 0 0 -2.27 16.46 0 0 0 0 2.27zm4.5 2.23l-2.27 0 0 0 0 -0.12 -0.01 -0.11 -0.02 -0.11 -0.02 -0.11 -0.02 -0.1 -0.03 -0.11 -0.04 -0.11 -0.04 -0.1 -0.04 -0.1 -0.05 -0.09 -0.06 -0.09 -0.05 -0.1 -0.07 -0.08 -0.06 -0.09 -0.07 -0.08 -0.08 -0.08 -0.08 -0.07 -0.08 -0.07 -0.08 -0.07 -0.09 -0.06 -0.09 -0.06 -0.1 -0.05 -0.09 -0.05 -0.1 -0.05 -0.1 -0.04 -0.1 -0.03 -0.11 -0.03 -0.1 -0.03 -0.11 -0.02 -0.11 -0.01 -0.12 -0.01 -0.11 0 0 -2.27 0.23 0.01 0.23 0.01 0.22 0.03 0.23 0.04 0.22 0.05 0.21 0.07 0.21 0.07 0.2 0.08 0.2 0.09 0.2 0.1 0.19 0.11 0.18 0.11 0.18 0.13 0.17 0.13 0.16 0.14 0.15 0.15 0.15 0.16 0.14 0.16 0.14 0.17 0.12 0.18 0.12 0.18 0.11 0.19 0.1 0.19 0.09 0.2 0.08 0.21 0.07 0.2 0.06 0.22 0.05 0.22 0.04 0.22 0.03 0.22 0.02 0.23 0 0.23 0 0zm-2.27 47.24l0 -47.24 2.27 0 0 47.24 0 0 -2.27 0zm-2.23 4.5l0 -2.27 0 0 0.11 0 0.12 -0.01 0.11 -0.01 0.11 -0.02 0.1 -0.03 0.11 -0.03 0.1 -0.03 0.1 -0.04 0.1 -0.05 0.09 -0.04 0.1 -0.06 0.09 -0.06 0.09 -0.06 0.08 -0.07 0.08 -0.07 0.08 -0.07 0.08 -0.08 0.07 -0.08 0.06 -0.09 0.07 -0.08 0.05 -0.1 0.06 -0.09 0.05 -0.09 0.04 -0.1 0.04 -0.1 0.04 -0.11 0.03 -0.1 0.02 -0.11 0.02 -0.11 0.02 -0.11 0.01 -0.11 0 -0.12 2.27 0 0 0.23 -0.02 0.23 -0.03 0.22 -0.04 0.22 -0.05 0.23 -0.06 0.21 -0.07 0.21 -0.08 0.2 -0.09 0.2 -0.1 0.19 -0.11 0.19 -0.12 0.18 -0.12 0.18 -0.14 0.17 -0.14 0.16 -0.15 0.16 -0.15 0.15 -0.16 0.14 -0.17 0.13 -0.18 0.13 -0.18 0.12 -0.19 0.1 -0.2 0.1 -0.2 0.09 -0.2 0.09 -0.21 0.07 -0.21 0.06 -0.22 0.05 -0.23 0.04 -0.22 0.03 -0.23 0.02 -0.23 0 0 0zm-16.46 -2.27l16.46 0 0 2.27 -16.46 0 0 0 0 -2.27zm-4.51 -2.23l2.28 0 0 0 0 0.12 0.01 0.11 0.02 0.11 0.02 0.11 0.02 0.11 0.03 0.1 0.04 0.11 0.04 0.1 0.04 0.1 0.05 0.09 0.05 0.09 0.06 0.1 0.06 0.08 0.07 0.09 0.07 0.08 0.08 0.08 0.07 0.07 0.09 0.07 0.08 0.07 0.09 0.06 0.09 0.06 0.09 0.06 0.1 0.04 0.1 0.05 0.1 0.04 0.1 0.03 0.11 0.03 0.1 0.03 0.11 0.02 0.11 0.01 0.11 0.01 0.12 0 0 2.27 -0.23 0 -0.23 -0.02 -0.23 -0.03 -0.22 -0.04 -0.22 -0.05 -0.21 -0.06 -0.21 -0.07 -0.2 -0.09 -0.2 -0.09 -0.2 -0.1 -0.19 -0.1 -0.18 -0.12 -0.18 -0.13 -0.17 -0.13 -0.16 -0.14 -0.16 -0.15 -0.15 -0.16 -0.14 -0.16 -0.13 -0.17 -0.13 -0.18 -0.11 -0.18 -0.11 -0.19 -0.1 -0.19 -0.09 -0.2 -0.08 -0.2 -0.07 -0.21 -0.06 -0.21 -0.05 -0.23 -0.04 -0.22 -0.03 -0.22 -0.02 -0.23 -0.01 -0.23 0 0zm2.28 -47.24l0 47.24 -2.28 0 0 -47.24 0 0 2.28 0zm2.23 -4.5l0 2.27 0 0 -0.12 0 -0.11 0.01 -0.11 0.01 -0.11 0.02 -0.1 0.03 -0.11 0.03 -0.1 0.03 -0.1 0.04 -0.1 0.05 -0.1 0.05 -0.09 0.05 -0.09 0.06 -0.09 0.06 -0.08 0.07 -0.09 0.07 -0.07 0.07 -0.08 0.08 -0.07 0.08 -0.07 0.09 -0.06 0.08 -0.06 0.1 -0.05 0.09 -0.05 0.09 -0.04 0.1 -0.04 0.1 -0.04 0.11 -0.03 0.11 -0.02 0.1 -0.02 0.11 -0.02 0.11 -0.01 0.11 0 0.12 -2.28 0 0.01 -0.23 0.02 -0.23 0.03 -0.22 0.04 -0.22 0.05 -0.22 0.06 -0.22 0.07 -0.2 0.08 -0.21 0.09 -0.2 0.1 -0.19 0.11 -0.19 0.11 -0.18 0.13 -0.18 0.13 -0.17 0.14 -0.16 0.15 -0.16 0.16 -0.15 0.16 -0.14 0.17 -0.13 0.18 -0.13 0.18 -0.11 0.19 -0.11 0.2 -0.1 0.2 -0.09 0.2 -0.08 0.21 -0.07 0.21 -0.07 0.22 -0.05 0.22 -0.04 0.23 -0.03 0.23 -0.01 0.23 -0.01 0 0z"/>
   <path id="_1" class="fil2" style="mask:url(#id2)" d="M185.07 251.05l16.46 0c1.85,0 3.37,1.52 3.37,3.37l0 47.24c0,1.85 -1.52,3.37 -3.37,3.37l-16.46 0c-1.85,0 -3.37,-1.52 -3.37,-3.37l0 -47.24c0,-1.85 1.52,-3.37 3.37,-3.37z"/>
  </g>
  <g>
   <path class="fil6" style="mask:url(#id4)" d="M211.65 252.19l0 -2.27 16.46 0 0 2.27 -16.46 0zm-4.5 2.23l0 0 0 -0.23 0.02 -0.23 0.03 -0.22 0.04 -0.22 0.05 -0.22 0.06 -0.22 0.07 -0.2 0.08 -0.21 0.09 -0.2 0.1 -0.19 0.11 -0.19 0.12 -0.18 0.12 -0.18 0.14 -0.17 0.14 -0.16 0.14 -0.16 0.16 -0.15 0.17 -0.14 0.16 -0.13 0.18 -0.13 0.19 -0.11 0.18 -0.11 0.2 -0.1 0.2 -0.09 0.2 -0.08 0.21 -0.07 0.21 -0.07 0.23 -0.05 0.22 -0.04 0.22 -0.03 0.23 -0.01 0.23 -0.01 0 2.27 -0.11 0 -0.12 0.01 -0.11 0.01 -0.11 0.02 -0.1 0.03 -0.1 0.03 -0.11 0.03 -0.1 0.04 -0.1 0.05 -0.09 0.05 -0.1 0.05 -0.09 0.06 -0.08 0.06 -0.09 0.07 -0.08 0.07 -0.08 0.07 -0.07 0.08 -0.08 0.08 -0.06 0.08 -0.06 0.09 -0.06 0.1 -0.06 0.09 -0.05 0.09 -0.04 0.1 -0.04 0.1 -0.04 0.11 -0.03 0.11 -0.02 0.1 -0.02 0.11 -0.01 0.11 -0.01 0.11 -0.01 0.12 0 0 -2.27 0zm2.27 47.24l-2.27 0 0 -47.24 2.27 0 0 47.24zm2.23 4.5l0 0 -0.23 0 -0.23 -0.02 -0.22 -0.03 -0.22 -0.04 -0.23 -0.05 -0.21 -0.06 -0.21 -0.07 -0.2 -0.09 -0.2 -0.09 -0.2 -0.1 -0.18 -0.1 -0.19 -0.12 -0.18 -0.13 -0.16 -0.13 -0.17 -0.14 -0.16 -0.15 -0.14 -0.16 -0.14 -0.16 -0.14 -0.17 -0.12 -0.18 -0.12 -0.18 -0.11 -0.19 -0.1 -0.19 -0.09 -0.2 -0.08 -0.2 -0.07 -0.21 -0.06 -0.21 -0.05 -0.23 -0.04 -0.22 -0.03 -0.22 -0.02 -0.23 0 -0.23 2.27 0 0.01 0.12 0.01 0.11 0.01 0.11 0.02 0.11 0.02 0.11 0.03 0.1 0.04 0.11 0.04 0.1 0.04 0.1 0.05 0.09 0.06 0.09 0.06 0.1 0.06 0.09 0.06 0.08 0.08 0.08 0.07 0.08 0.08 0.07 0.08 0.07 0.09 0.07 0.08 0.06 0.09 0.06 0.1 0.06 0.09 0.04 0.1 0.05 0.1 0.04 0.11 0.03 0.1 0.03 0.1 0.03 0.11 0.02 0.11 0.01 0.12 0.01 0.11 0 0 0 0 2.27zm16.46 -2.27l0 2.27 -16.46 0 0 -2.27 16.46 0zm4.51 -2.23l0 0 -0.01 0.23 -0.02 0.23 -0.02 0.22 -0.04 0.22 -0.05 0.23 -0.07 0.21 -0.07 0.21 -0.08 0.2 -0.09 0.2 -0.1 0.19 -0.11 0.19 -0.11 0.18 -0.13 0.18 -0.13 0.17 -0.14 0.16 -0.15 0.16 -0.16 0.15 -0.16 0.14 -0.17 0.13 -0.17 0.13 -0.19 0.12 -0.19 0.1 -0.19 0.1 -0.2 0.1 -0.21 0.08 -0.2 0.07 -0.22 0.06 -0.22 0.05 -0.22 0.04 -0.23 0.03 -0.22 0.02 -0.24 0 0 -2.27 0.12 0 0.11 -0.01 0.11 -0.01 0.11 -0.02 0.1 -0.03 0.11 -0.03 0.11 -0.03 0.1 -0.04 0.09 -0.05 0.1 -0.04 0.09 -0.06 0.09 -0.06 0.09 -0.06 0.09 -0.07 0.08 -0.07 0.08 -0.07 0.07 -0.08 0.07 -0.08 0.06 -0.08 0.07 -0.09 0.06 -0.1 0.05 -0.09 0.05 -0.09 0.05 -0.11 0.04 -0.09 0.03 -0.11 0.03 -0.1 0.03 -0.11 0.01 -0.11 0.02 -0.11 0.01 -0.11 0 -0.12 0 0 2.28 0zm-2.28 -47.24l2.28 0 0 47.24 -2.28 0 0 -47.24zm-2.23 -4.5l0 0 0.24 0.01 0.22 0.01 0.23 0.03 0.22 0.04 0.22 0.05 0.22 0.07 0.2 0.07 0.21 0.08 0.2 0.09 0.19 0.1 0.19 0.11 0.19 0.11 0.17 0.13 0.17 0.13 0.16 0.14 0.16 0.15 0.15 0.16 0.14 0.16 0.13 0.17 0.13 0.18 0.11 0.18 0.11 0.19 0.1 0.19 0.09 0.2 0.08 0.21 0.07 0.21 0.07 0.21 0.05 0.22 0.04 0.22 0.02 0.22 0.02 0.23 0.01 0.23 -2.28 0 0 -0.12 -0.01 -0.11 -0.02 -0.11 -0.01 -0.11 -0.03 -0.1 -0.03 -0.11 -0.03 -0.11 -0.04 -0.09 -0.05 -0.11 -0.05 -0.09 -0.05 -0.09 -0.06 -0.1 -0.07 -0.09 -0.06 -0.08 -0.07 -0.08 -0.07 -0.08 -0.08 -0.07 -0.08 -0.07 -0.09 -0.07 -0.09 -0.06 -0.09 -0.06 -0.09 -0.05 -0.1 -0.05 -0.09 -0.05 -0.1 -0.04 -0.11 -0.03 -0.11 -0.03 -0.1 -0.03 -0.11 -0.02 -0.11 -0.01 -0.11 -0.01 -0.12 0 0 0 0 -2.27z"/>
   <path id="_1_13" class="fil3" style="mask:url(#id6)" d="M228.11 251.05l-16.46 0c-1.85,0 -3.37,1.52 -3.37,3.37l0 47.24c0,1.85 1.52,3.37 3.37,3.37l16.46 0c1.86,0 3.37,-1.52 3.37,-3.37l0 -47.24c0,-1.85 -1.51,-3.37 -3.37,-3.37z"/>
  </g>
  <g>
   <path class="fil6" style="mask:url(#id8)" d="M254.7 252.19l-16.46 0 0 -2.27 16.46 0 0 0 0 2.27zm4.5 2.23l-2.27 0 0 0 -0.01 -0.12 -0.01 -0.11 -0.01 -0.11 -0.02 -0.11 -0.02 -0.1 -0.03 -0.11 -0.04 -0.11 -0.04 -0.1 -0.04 -0.1 -0.05 -0.09 -0.06 -0.09 -0.06 -0.1 -0.06 -0.09 -0.06 -0.08 -0.08 -0.08 -0.07 -0.08 -0.08 -0.07 -0.08 -0.07 -0.09 -0.07 -0.08 -0.06 -0.09 -0.06 -0.1 -0.05 -0.09 -0.05 -0.1 -0.05 -0.1 -0.04 -0.11 -0.03 -0.1 -0.03 -0.1 -0.03 -0.11 -0.02 -0.11 -0.01 -0.12 -0.01 -0.11 0 0 -2.27 0.23 0.01 0.23 0.01 0.22 0.03 0.22 0.04 0.22 0.05 0.22 0.07 0.21 0.07 0.2 0.08 0.2 0.09 0.2 0.1 0.18 0.11 0.19 0.11 0.17 0.13 0.17 0.13 0.16 0.14 0.16 0.15 0.15 0.16 0.14 0.16 0.14 0.17 0.12 0.18 0.12 0.18 0.11 0.19 0.1 0.19 0.09 0.2 0.08 0.21 0.07 0.2 0.06 0.22 0.05 0.22 0.04 0.22 0.03 0.22 0.02 0.23 0 0.23 0 0zm-2.27 47.24l0 -47.24 2.27 0 0 47.24 0 0 -2.27 0zm-2.23 4.5l0 -2.27 0 0 0.11 0 0.12 -0.01 0.11 -0.01 0.11 -0.02 0.1 -0.03 0.1 -0.03 0.11 -0.03 0.1 -0.04 0.1 -0.05 0.09 -0.04 0.1 -0.06 0.09 -0.06 0.08 -0.06 0.09 -0.07 0.08 -0.07 0.08 -0.07 0.07 -0.08 0.08 -0.08 0.06 -0.08 0.06 -0.09 0.06 -0.1 0.06 -0.09 0.05 -0.09 0.04 -0.1 0.04 -0.1 0.04 -0.11 0.03 -0.1 0.02 -0.11 0.02 -0.11 0.01 -0.11 0.01 -0.11 0.01 -0.12 2.27 0 0 0.23 -0.02 0.23 -0.03 0.22 -0.04 0.22 -0.05 0.23 -0.06 0.21 -0.07 0.21 -0.08 0.2 -0.09 0.2 -0.1 0.19 -0.11 0.19 -0.12 0.18 -0.12 0.18 -0.14 0.17 -0.14 0.16 -0.15 0.16 -0.16 0.15 -0.16 0.14 -0.17 0.13 -0.17 0.13 -0.19 0.12 -0.18 0.1 -0.2 0.1 -0.2 0.1 -0.2 0.08 -0.21 0.07 -0.22 0.06 -0.22 0.05 -0.22 0.04 -0.22 0.03 -0.23 0.02 -0.23 0 0 0zm-16.46 -2.27l16.46 0 0 2.27 -16.46 0 0 0 0 -2.27zm-4.51 -2.23l2.28 0 0 0 0 0.12 0.01 0.11 0.01 0.11 0.02 0.11 0.03 0.11 0.03 0.1 0.03 0.11 0.04 0.1 0.05 0.1 0.05 0.09 0.05 0.09 0.06 0.1 0.06 0.08 0.07 0.09 0.07 0.08 0.07 0.08 0.08 0.07 0.08 0.07 0.09 0.07 0.09 0.06 0.09 0.06 0.09 0.06 0.1 0.04 0.09 0.05 0.1 0.04 0.11 0.03 0.11 0.03 0.1 0.03 0.11 0.02 0.11 0.01 0.11 0.01 0.12 0 0 2.27 -0.24 0 -0.22 -0.02 -0.23 -0.03 -0.22 -0.04 -0.22 -0.05 -0.21 -0.06 -0.21 -0.07 -0.21 -0.09 -0.2 -0.09 -0.19 -0.1 -0.19 -0.1 -0.18 -0.12 -0.18 -0.13 -0.17 -0.13 -0.16 -0.14 -0.16 -0.15 -0.15 -0.16 -0.14 -0.16 -0.13 -0.17 -0.13 -0.18 -0.11 -0.18 -0.11 -0.19 -0.1 -0.19 -0.09 -0.2 -0.08 -0.2 -0.07 -0.21 -0.07 -0.21 -0.05 -0.23 -0.04 -0.22 -0.03 -0.22 -0.01 -0.23 -0.01 -0.23 0 0zm2.28 -47.24l0 47.24 -2.28 0 0 -47.24 0 0 2.28 0zm2.23 -4.5l0 2.27 0 0 -0.12 0 -0.11 0.01 -0.11 0.01 -0.11 0.02 -0.1 0.03 -0.11 0.03 -0.11 0.03 -0.1 0.04 -0.09 0.05 -0.1 0.05 -0.09 0.05 -0.09 0.06 -0.09 0.06 -0.09 0.07 -0.08 0.07 -0.08 0.07 -0.07 0.08 -0.07 0.08 -0.07 0.09 -0.06 0.08 -0.06 0.1 -0.05 0.09 -0.05 0.09 -0.05 0.1 -0.04 0.1 -0.03 0.11 -0.03 0.11 -0.03 0.1 -0.02 0.11 -0.01 0.11 -0.01 0.11 0 0.12 -2.28 0 0.01 -0.23 0.01 -0.23 0.03 -0.22 0.04 -0.22 0.05 -0.22 0.07 -0.22 0.07 -0.2 0.08 -0.21 0.09 -0.2 0.1 -0.19 0.11 -0.19 0.11 -0.18 0.13 -0.18 0.13 -0.17 0.14 -0.16 0.15 -0.16 0.16 -0.15 0.16 -0.14 0.17 -0.13 0.18 -0.13 0.18 -0.11 0.19 -0.11 0.19 -0.1 0.2 -0.09 0.21 -0.08 0.21 -0.08 0.21 -0.06 0.22 -0.05 0.22 -0.04 0.23 -0.03 0.22 -0.01 0.24 -0.01 0 0z"/>
   <path id="_1_14" class="fil4" style="mask:url(#id10)" d="M238.24 251.05l16.46 0c1.85,0 3.37,1.52 3.37,3.37l0 47.24c0,1.85 -1.52,3.37 -3.37,3.37l-16.46 0c-1.86,0 -3.37,-1.52 -3.37,-3.37l0 -47.24c0,-1.85 1.51,-3.37 3.37,-3.37z"/>
  </g>
  <g>
   <path class="fil6" style="mask:url(#id12)" d="M264.82 252.19l0 -2.27 16.46 0 0 2.27 -16.46 0zm-4.5 2.23l0 0 0 -0.23 0.02 -0.23 0.03 -0.22 0.04 -0.22 0.05 -0.22 0.06 -0.22 0.07 -0.2 0.08 -0.21 0.09 -0.2 0.1 -0.19 0.11 -0.19 0.12 -0.18 0.12 -0.18 0.14 -0.17 0.14 -0.16 0.15 -0.16 0.15 -0.15 0.16 -0.14 0.17 -0.13 0.18 -0.13 0.18 -0.11 0.19 -0.11 0.2 -0.1 0.2 -0.09 0.2 -0.08 0.21 -0.07 0.21 -0.07 0.22 -0.05 0.23 -0.04 0.22 -0.03 0.23 -0.01 0.23 -0.01 0 2.27 -0.11 0 -0.12 0.01 -0.11 0.01 -0.11 0.02 -0.1 0.03 -0.11 0.03 -0.1 0.03 -0.1 0.04 -0.1 0.05 -0.09 0.05 -0.1 0.05 -0.09 0.06 -0.09 0.06 -0.08 0.07 -0.08 0.07 -0.08 0.07 -0.08 0.08 -0.07 0.08 -0.06 0.09 -0.07 0.08 -0.05 0.1 -0.06 0.09 -0.05 0.09 -0.04 0.1 -0.04 0.1 -0.04 0.11 -0.03 0.11 -0.02 0.1 -0.02 0.11 -0.02 0.11 -0.01 0.11 0 0.12 0 0 -2.27 0zm2.27 47.24l-2.27 0 0 -47.24 2.27 0 0 47.24zm2.23 4.5l0 0 -0.23 0 -0.23 -0.02 -0.22 -0.03 -0.23 -0.04 -0.22 -0.05 -0.21 -0.06 -0.21 -0.07 -0.2 -0.09 -0.2 -0.09 -0.2 -0.1 -0.19 -0.1 -0.18 -0.12 -0.18 -0.13 -0.17 -0.13 -0.16 -0.14 -0.15 -0.15 -0.15 -0.16 -0.14 -0.16 -0.14 -0.17 -0.12 -0.18 -0.12 -0.18 -0.11 -0.19 -0.1 -0.19 -0.09 -0.2 -0.08 -0.2 -0.07 -0.21 -0.06 -0.21 -0.05 -0.23 -0.04 -0.22 -0.03 -0.22 -0.02 -0.23 0 -0.23 2.27 0 0 0.12 0.01 0.11 0.02 0.11 0.02 0.11 0.02 0.11 0.03 0.1 0.04 0.11 0.04 0.1 0.04 0.1 0.05 0.09 0.06 0.09 0.05 0.1 0.07 0.08 0.06 0.09 0.07 0.08 0.08 0.08 0.08 0.07 0.08 0.07 0.08 0.07 0.09 0.06 0.09 0.06 0.1 0.06 0.09 0.04 0.1 0.05 0.1 0.04 0.1 0.03 0.11 0.03 0.1 0.03 0.11 0.02 0.11 0.01 0.12 0.01 0.11 0 0 0 0 2.27zm16.46 -2.27l0 2.27 -16.46 0 0 -2.27 16.46 0zm4.51 -2.23l0 0 -0.01 0.23 -0.02 0.23 -0.03 0.22 -0.04 0.22 -0.05 0.23 -0.06 0.21 -0.07 0.21 -0.08 0.2 -0.09 0.2 -0.1 0.19 -0.11 0.19 -0.11 0.18 -0.13 0.18 -0.13 0.17 -0.14 0.16 -0.15 0.16 -0.16 0.15 -0.16 0.14 -0.17 0.13 -0.18 0.13 -0.18 0.12 -0.19 0.1 -0.2 0.1 -0.2 0.09 -0.2 0.09 -0.21 0.07 -0.21 0.06 -0.22 0.05 -0.22 0.04 -0.23 0.03 -0.23 0.02 -0.23 0 0 -2.27 0.12 0 0.11 -0.01 0.11 -0.01 0.11 -0.02 0.1 -0.03 0.11 -0.03 0.1 -0.03 0.1 -0.04 0.1 -0.05 0.1 -0.04 0.09 -0.06 0.09 -0.06 0.09 -0.06 0.08 -0.07 0.09 -0.07 0.07 -0.07 0.08 -0.08 0.07 -0.08 0.07 -0.09 0.06 -0.08 0.06 -0.1 0.05 -0.09 0.05 -0.09 0.04 -0.1 0.04 -0.1 0.04 -0.11 0.03 -0.1 0.02 -0.11 0.02 -0.11 0.02 -0.11 0.01 -0.11 0 -0.12 0 0 2.28 0zm-2.28 -47.24l2.28 0 0 47.24 -2.28 0 0 -47.24zm-2.23 -4.5l0 0 0.23 0.01 0.23 0.01 0.23 0.03 0.22 0.04 0.22 0.05 0.21 0.07 0.21 0.07 0.2 0.08 0.2 0.09 0.2 0.1 0.19 0.11 0.18 0.11 0.18 0.13 0.17 0.13 0.16 0.14 0.16 0.15 0.15 0.16 0.14 0.16 0.13 0.17 0.13 0.18 0.11 0.18 0.11 0.19 0.1 0.19 0.09 0.2 0.08 0.21 0.07 0.2 0.06 0.22 0.05 0.22 0.04 0.22 0.03 0.22 0.02 0.23 0.01 0.23 -2.28 0 0 -0.12 -0.01 -0.11 -0.02 -0.11 -0.02 -0.11 -0.02 -0.1 -0.03 -0.11 -0.04 -0.11 -0.04 -0.1 -0.04 -0.1 -0.05 -0.09 -0.05 -0.09 -0.06 -0.1 -0.06 -0.08 -0.07 -0.09 -0.07 -0.08 -0.08 -0.08 -0.07 -0.07 -0.09 -0.07 -0.08 -0.07 -0.09 -0.06 -0.09 -0.06 -0.09 -0.05 -0.1 -0.05 -0.1 -0.05 -0.1 -0.04 -0.1 -0.03 -0.11 -0.03 -0.1 -0.03 -0.11 -0.02 -0.11 -0.01 -0.11 -0.01 -0.12 0 0 0 0 -2.27z"/>
   <path id="_1_15" class="fil5" style="mask:url(#id14)" d="M281.28 251.05l-16.46 0c-1.85,0 -3.37,1.52 -3.37,3.37l0 47.24c0,1.85 1.52,3.37 3.37,3.37l16.46 0c1.85,0 3.37,-1.52 3.37,-3.37l0 -47.24c0,-1.85 -1.52,-3.37 -3.37,-3.37z"/>
  </g>
 </g>
</svg>
