<?xml version="1.0" encoding="UTF-8"?>
<!DOCTYPE svg PUBLIC "-//W3C//DTD SVG 1.1//EN" "http://www.w3.org/Graphics/SVG/1.1/DTD/svg11.dtd">
<!-- Creator: CorelDRAW -->
<svg xmlns="http://www.w3.org/2000/svg" xml:space="preserve" width="456px" height="456px" version="1.1" style="shape-rendering:geometricPrecision; text-rendering:geometricPrecision; image-rendering:optimizeQuality; fill-rule:evenodd; clip-rule:evenodd"
viewBox="0 0 456 456"
 xmlns:xlink="http://www.w3.org/1999/xlink"
 xmlns:xodm="http://www.corel.com/coreldraw/odm/2003"
 xmlns:svgjs="http://svgjs.dev/svgjs"
 data-background-color="#c8f7dd">
 <defs>
  <style type="text/css">
   <![CDATA[
    .str0 {stroke:#FEFEFE;stroke-width:4.17;stroke-miterlimit:2.61313}
    .fil5 {fill:#373435}
    .fil4 {fill:#FFF212}
    .fil3 {fill:#EC268F}
    .fil2 {fill:#00AFEF}
    .fil1 {fill:#FEFEFE;fill-rule:nonzero}
    .fil6 {fill:#FEFEFE;fill-rule:nonzero}
    .fil0 {fill:#0077BD;fill-rule:nonzero}
   ]]>
  </style>
    <mask id="id0">
  <linearGradient id="id1" gradientUnits="userSpaceOnUse" x1="237.26" y1="255.95" x2="237.26" y2="325.07">
   <stop offset="0" style="stop-opacity:1; stop-color:white"/>
   <stop offset="0.619608" style="stop-opacity:0.501961; stop-color:white"/>
   <stop offset="1" style="stop-opacity:0; stop-color:white"/>
  </linearGradient>
     <rect style="fill:url(#id1)" x="167.24" y="256.08" width="32.62" height="72.04"/>
    </mask>
    <mask id="id2">
  <linearGradient id="id3" gradientUnits="userSpaceOnUse" x1="232.46" y1="257.41" x2="232.46" y2="323.74">
   <stop offset="0" style="stop-opacity:1; stop-color:white"/>
   <stop offset="0.619608" style="stop-opacity:0.501961; stop-color:white"/>
   <stop offset="1" style="stop-opacity:0; stop-color:white"/>
  </linearGradient>
     <rect style="fill:url(#id3)" x="168.7" y="257.53" width="29.71" height="69.13"/>
    </mask>
    <mask id="id4">
  <linearGradient id="id5" gradientUnits="userSpaceOnUse" x1="233.92" y1="255.95" x2="233.92" y2="325.07">
   <stop offset="0" style="stop-opacity:1; stop-color:white"/>
   <stop offset="0.619608" style="stop-opacity:0.501961; stop-color:white"/>
   <stop offset="1" style="stop-opacity:0; stop-color:white"/>
  </linearGradient>
     <rect style="fill:url(#id5)" x="201.29" y="256.08" width="32.62" height="72.04"/>
    </mask>
    <mask id="id6">
  <linearGradient id="id7" gradientUnits="userSpaceOnUse" x1="232.46" y1="257.41" x2="232.46" y2="323.74">
   <stop offset="0" style="stop-opacity:1; stop-color:white"/>
   <stop offset="0.619608" style="stop-opacity:0.501961; stop-color:white"/>
   <stop offset="1" style="stop-opacity:0; stop-color:white"/>
  </linearGradient>
     <rect style="fill:url(#id7)" x="202.75" y="257.53" width="29.71" height="69.13"/>
    </mask>
    <mask id="id8">
  <linearGradient id="id9" gradientUnits="userSpaceOnUse" x1="230.58" y1="255.95" x2="230.58" y2="325.07">
   <stop offset="0" style="stop-opacity:1; stop-color:white"/>
   <stop offset="0.619608" style="stop-opacity:0.501961; stop-color:white"/>
   <stop offset="1" style="stop-opacity:0; stop-color:white"/>
  </linearGradient>
     <rect style="fill:url(#id9)" x="235.34" y="256.08" width="32.63" height="72.04"/>
    </mask>
    <mask id="id10">
  <linearGradient id="id11" gradientUnits="userSpaceOnUse" x1="232.46" y1="257.41" x2="232.46" y2="323.74">
   <stop offset="0" style="stop-opacity:1; stop-color:white"/>
   <stop offset="0.619608" style="stop-opacity:0.501961; stop-color:white"/>
   <stop offset="1" style="stop-opacity:0; stop-color:white"/>
  </linearGradient>
     <rect style="fill:url(#id11)" x="236.8" y="257.53" width="29.71" height="69.13"/>
    </mask>
    <mask id="id12">
  <linearGradient id="id13" gradientUnits="userSpaceOnUse" x1="227.23" y1="255.95" x2="227.24" y2="325.07">
   <stop offset="0" style="stop-opacity:1; stop-color:white"/>
   <stop offset="0.619608" style="stop-opacity:0.501961; stop-color:white"/>
   <stop offset="1" style="stop-opacity:0; stop-color:white"/>
  </linearGradient>
     <rect style="fill:url(#id13)" x="269.39" y="256.08" width="32.63" height="72.04"/>
    </mask>
    <mask id="id14">
  <linearGradient id="id15" gradientUnits="userSpaceOnUse" x1="232.46" y1="257.41" x2="232.46" y2="323.74">
   <stop offset="0" style="stop-opacity:1; stop-color:white"/>
   <stop offset="0.619608" style="stop-opacity:0.501961; stop-color:white"/>
   <stop offset="1" style="stop-opacity:0; stop-color:white"/>
  </linearGradient>
     <rect style="fill:url(#id15)" x="270.85" y="257.53" width="29.71" height="69.13"/>
    </mask>
 </defs>
 <g id="Layer_x0020_1">
  <metadata id="CorelCorpID_0Corel-Layer"/>
  <path class="fil0" d="M7877.18 -503.08c-47.43,-57.83 -137.18,-87.57 -232.42,-118.95 -40.86,-13.5 -83,-27.55 -124.23,-44.51 -41.6,-17.15 -82.46,-39.22 -122.23,-60.39 -80.82,-43.41 -164.37,-88.29 -249.2,-88.29 -84.65,0 -168.2,44.88 -249.02,88.29 -39.77,21.35 -80.82,43.42 -122.41,60.57 -41.05,16.97 -83.38,30.83 -124.24,44.51 -95.23,31.57 -184.98,61.3 -232.41,118.95 -63.31,77.17 -61.85,191.55 -60.39,312.51 0.18,18.24 0.37,36.3 0.36,54.18 0,17.88 -0.18,35.94 -0.54,54.18 -1.46,121.13 -2.92,235.34 60.38,312.69 47.43,57.65 137.19,87.38 232.24,118.94 40.86,13.5 83,27.55 124.42,44.51 41.59,17.15 82.46,39.04 122.04,60.39 81,43.6 164.55,88.48 249.2,88.48 84.83,0 168.39,-44.88 249.2,-88.3 39.77,-21.34 80.64,-43.42 122.23,-60.38 41.05,-16.97 83.01,-30.83 123.69,-44.34 95.78,-31.74 185.54,-61.47 232.97,-119.12 63.3,-77.17 61.84,-191.55 60.38,-312.5 -0.18,-18.43 -0.55,-36.49 -0.55,-54.37 0,-17.88 0.19,-35.94 0.55,-54 2.01,-121.5 3.46,-235.88 -60.02,-313.05l0 0zm58.75 -48.16c-85.02,-103.63 -247.56,-128.25 -386.39,-185.54 -124.24,-51.08 -250.67,-154.52 -400.26,-154.52 -149.59,0 -276.01,103.44 -400.25,154.52 -139.02,57.28 -301.38,81.91 -386.39,185.54 -92.31,112.37 -77.36,270.91 -77.36,415.03 0,143.93 -14.96,302.65 77.17,415.03 85.01,103.62 247.56,128.24 386.4,185.53 124.23,51.26 250.66,154.52 400.25,154.52 149.59,0 276.02,-103.26 400.25,-154.52 139.02,-57.28 301.38,-81.91 386.39,-185.53 92.13,-112.38 77.17,-270.91 77.17,-415.03 0.37,-144.12 15.32,-302.66 -76.98,-415.03l0 0zm23.35 468.66c1.64,125.51 3.1,243.55 -65.31,326.92 -51.45,62.57 -144.13,93.4 -242.27,125.88 -40.86,13.5 -82.65,27.36 -122.78,43.96 -40.5,16.6 -80.82,38.31 -119.86,59.29 -83.55,44.88 -169.47,91.03 -259.78,91.03 -90.3,0 -176.22,-46.15 -259.41,-90.85 -39.23,-21.16 -79.73,-42.87 -120.23,-59.47 -40.68,-16.78 -82.46,-30.64 -122.95,-43.96 -98.33,-32.48 -191.01,-63.31 -242.28,-125.88 -68.23,-83.19 -66.77,-201.41 -65.31,-326.55 0.19,-18.24 0.55,-36.12 0.55,-54 0,-17.88 -0.18,-35.76 -0.36,-54.01 -1.65,-125.15 -3.11,-243.36 65.31,-326.54 51.44,-62.58 144.12,-93.23 242.26,-125.88 40.69,-13.51 82.46,-27.37 122.96,-43.97 40.5,-16.78 81,-38.49 120.22,-59.47 83.19,-44.7 169.3,-91.03 259.42,-91.03 90.12,0 176.23,46.15 259.42,90.84 39.22,21.17 79.72,42.88 120.23,59.48 40.5,16.78 82.46,30.47 122.77,43.96 98.15,32.48 191.01,63.31 242.27,125.88 68.41,83.38 66.95,201.41 65.31,326.56 -0.18,18.42 -0.55,36.3 -0.55,53.99 0,17.88 0.19,35.76 0.37,53.82l0 0z" text-anchor="none" data-fill-palette-color="tertiary"/>
  <path id="text-0" class="fil1" d="M7592.04 51.92l0 0c-18.31,-0.76 -34.75,-2.35 -49.31,-4.77 -14.62,-2.35 -28.74,-6.23 -42.35,-11.64 -13.54,-5.34 -24.95,-12.08 -34.24,-20.22 -9.22,-8.13 -16.88,-18.56 -22.98,-31.28 -6.17,-12.78 -9.95,-27.53 -11.35,-44.25l0 0c0,-2.99 1.56,-4.71 4.67,-5.16l0 0c0.95,0.32 2.51,0.48 4.67,0.48l0 0c12.91,0 32.46,-0.32 58.66,-0.95 26.26,-0.64 45.85,-0.96 58.75,-0.96l0 0c3.25,0 5.79,1.05 7.63,3.15 1.85,2.1 3.37,4.67 4.58,7.73 1.15,2.99 2.55,6.01 4.2,9.06 1.59,3.05 4.39,5.63 8.39,7.72 3.95,2.1 9,3.15 15.17,3.15l0 0c7.63,0 14.37,-2.16 20.22,-6.48 5.78,-4.26 8.68,-10.02 8.68,-17.27l0 0c0,-4.83 -2.48,-9.28 -7.44,-13.35 -4.96,-4.01 -11.51,-7.28 -19.65,-9.82 -8.14,-2.61 -15.9,-4.81 -23.27,-6.59 -7.38,-1.78 -14.94,-3.3 -22.7,-4.57 -7.76,-1.34 -12.27,-2.17 -13.55,-2.48l0 0c-37.7,-10.24 -64.82,-22.99 -81.35,-38.25 -16.54,-15.2 -24.8,-35.99 -24.8,-62.38l0 0c0,-18.63 3.4,-35.35 10.2,-50.17 6.87,-14.81 15.8,-26.92 26.8,-36.34 11.01,-9.41 24.04,-17.23 39.11,-23.46 15.07,-6.29 30.3,-10.74 45.69,-13.35 15.32,-2.54 31.22,-3.82 47.68,-3.82l0 0c43.62,0 78.41,8.08 104.35,24.23l0 0c9.47,9.47 16.4,16.66 20.79,21.55 4.45,4.9 8.74,10.59 12.88,17.08 4.07,6.55 6.93,12.97 8.58,19.26 1.65,6.3 2.77,14.02 3.34,23.18l0 0 -8.39 8.39c-31.8,1.21 -67.5,1.82 -107.11,1.82l0 0c-4.96,0 -8.94,-0.54 -11.93,-1.63 -3.05,-1.08 -5.08,-2.48 -6.1,-4.19 -1.02,-1.72 -2.03,-3.5 -3.05,-5.34 -0.96,-1.85 -1.88,-3.63 -2.77,-5.34 -0.82,-1.72 -2.61,-3.12 -5.34,-4.2 -2.73,-1.08 -6.36,-1.62 -10.87,-1.62l0 0c-1.21,0 -3.18,0.22 -5.92,0.67 -2.73,0.44 -5.91,1.17 -9.53,2.19 -3.63,1.02 -6.78,2.57 -9.45,4.67 -2.6,2.1 -3.91,4.55 -3.91,7.35l0 0c0,3.43 1.75,6.55 5.25,9.34 3.5,2.8 7.18,4.8 11.06,6.01 3.88,1.27 8.68,2.64 14.41,4.1 5.72,1.47 9.28,2.42 10.68,2.86l0 0c33.89,8.59 54.08,13.87 60.56,15.84l0 0c34.02,10.74 58.09,24.8 72.2,42.15l0 0c13.04,16.16 19.56,36.41 19.56,60.76l0 0c0,14.75 -1.91,28.2 -5.73,40.35 -3.81,12.08 -8.8,22.31 -14.97,30.71 -6.23,8.39 -13.99,15.83 -23.27,22.31 -9.35,6.55 -18.79,11.77 -28.33,15.65 -9.54,3.88 -20.38,7.15 -32.52,9.82 -12.09,2.61 -23.21,4.48 -33.39,5.63 -10.17,1.21 -21.23,2.1 -33.19,2.67z" data-fill-palette-color="quaternary"/>
  <path id="text-0_0" class="fil1" d="M7403 -49.09l0 0c0,2.8 0.16,7.09 0.48,12.88 0.32,5.85 0.54,11.41 0.67,16.69 0.19,5.28 0.32,11.13 0.38,17.55 0.06,6.49 -0.19,12.3 -0.76,17.46 -0.51,5.21 -1.31,10.1 -2.39,14.68 -1.08,4.58 -2.76,8.11 -5.05,10.59 -2.23,2.48 -4.96,3.72 -8.21,3.72l0 0 -106.25 0c-7.44,-5.72 -11.16,-27.12 -11.16,-64.19l0 0c0,-13.54 0.1,-29.82 0.29,-48.83 0.13,-19.02 0.19,-32.56 0.19,-40.63l0 0 0 -16.31c0,-1.4 -0.13,-4.07 -0.38,-8.01 -0.19,-3.95 -0.22,-7.03 -0.1,-9.26l0 0c-6.16,22.51 -13.76,54.75 -22.79,96.72 -9.03,41.9 -15.23,69.91 -18.6,84.02l0 0c-1.59,4.33 -8.74,6.49 -21.46,6.49l0 0 -82.41 0c-10.11,0 -16.02,-2.64 -17.74,-7.92l0 0 -22.32 -97.28c-2.03,-9.92 -4.26,-20.25 -6.67,-31 -2.42,-10.68 -5.25,-22.86 -8.49,-36.53 -3.24,-13.67 -5.66,-23.78 -7.25,-30.33l0 0c-1.84,49.72 -2.76,87.62 -2.76,113.69l0 0 0 41.01c0,18.32 0.15,32.11 0.47,41.4l0 0c-0.95,3.43 -2.67,5.15 -5.15,5.15l0 0 -21.84 0c-9.16,0 -22.6,0.06 -40.34,0.19 -17.68,0.19 -31.1,0.28 -40.25,0.28l0 0c-8.4,0 -12.59,-1.39 -12.59,-4.19l0 0 0 -345.56c0,-1.39 0.35,-2.6 1.04,-3.62 0.7,-1.02 1.78,-1.81 3.25,-2.38 1.52,-0.51 2.99,-0.93 4.38,-1.24 1.4,-0.32 3.18,-0.51 5.35,-0.58 2.16,-0.06 3.94,-0.16 5.34,-0.28 1.4,-0.07 3.18,-0.07 5.34,0 2.16,0.12 3.56,0.19 4.2,0.19l0 0 27.46 0c44.26,0 75.42,0.6 93.47,1.81 18.13,1.27 31.99,1.91 41.59,1.91l0 0c3.75,20.79 9.66,51.66 17.74,92.61l0 0 17.64 92.71 37.3 -188.18c0,0 0.6,0.15 1.81,0.47 1.27,0.32 2.22,0.48 2.86,0.48l0 0c16.6,0 41.11,-0.22 73.54,-0.67 32.43,-0.44 56.97,-0.67 73.63,-0.67l0 0 34.43 0c4.32,0.45 6.49,4.77 6.49,12.98l0 0c3.43,150.44 5.3,234.43 5.62,251.98z" data-fill-palette-color="quaternary"/>
  <path id="text-0_1" class="fil1" d="M6720.29 -229.35l0 0c-6.36,0 -12.05,1.49 -17.07,4.48 -5.09,2.93 -9.22,6.49 -12.4,10.69 -3.18,4.19 -5.95,9.82 -8.3,16.88 -2.29,7.06 -3.98,13.41 -5.06,19.07 -1.08,5.66 -1.94,12.81 -2.57,21.46 -0.64,8.59 -0.99,15.26 -1.05,20.03 -0.06,4.71 -0.1,10.78 -0.1,18.22l0 0c0,7.18 0.26,13.99 0.77,20.41 0.57,6.42 1.75,13.26 3.53,20.51 1.78,7.18 4.1,13.48 6.96,18.88 2.86,5.34 6.83,9.82 11.92,13.45 5.02,3.69 10.78,5.66 17.26,5.91l0 0c6.87,0 12.94,-1.11 18.22,-3.34 5.28,-2.22 9.7,-5.08 13.26,-8.58 3.56,-3.5 6.58,-8.2 9.06,-14.12 2.48,-5.91 4.39,-11.57 5.72,-16.97 1.34,-5.47 2.35,-12.24 3.05,-20.32 0.7,-8.07 1.12,-15.01 1.24,-20.79 0.2,-5.85 0.29,-13.19 0.29,-22.03l0 0c0,-6.49 -0.19,-12.53 -0.57,-18.13 -0.45,-5.59 -1.11,-11.82 -2.01,-18.69 -0.95,-6.8 -2.51,-12.81 -4.67,-18.02 -2.16,-5.22 -4.8,-10.12 -7.91,-14.69 -3.12,-4.58 -7.19,-8.11 -12.21,-10.59 -5.09,-2.48 -10.88,-3.72 -17.36,-3.72zm-185.32 92.23l0 0 0 -25.56c1.53,-21.75 6.26,-41.59 14.21,-59.52 7.88,-17.93 17.93,-33.03 30.14,-45.3 12.14,-12.27 26.23,-22.64 42.25,-31.09 15.96,-8.46 32.68,-14.63 50.17,-18.51 17.49,-3.88 35.54,-5.82 54.18,-5.82l0 0c10.23,0 20.88,0.86 31.95,2.58 11.12,1.72 22.89,4.42 35.29,8.11 12.4,3.75 24.32,9.22 35.76,16.4 11.39,7.25 20.83,15.77 28.33,25.56l0 0c15.32,18.76 26.45,38.41 33.38,58.95 6.87,20.6 10.3,43.46 10.3,68.57l0 0c0.51,52.52 -10.96,94.78 -34.43,126.76l0 0 -10.2 13.93c-9.03,12.39 -21.94,22.76 -38.73,31.09 -16.72,8.33 -33.47,14.08 -50.26,17.26 -16.79,3.18 -33.7,4.77 -50.74,4.77l0 0c-20.03,0 -38.5,-2.03 -55.42,-6.1 -16.91,-4.01 -31.5,-9.45 -43.77,-16.31 -12.28,-6.81 -23.21,-15.1 -32.81,-24.9 -9.67,-9.79 -17.55,-20.12 -23.66,-30.99 -6.17,-10.81 -11.22,-22.61 -15.16,-35.39 -3.95,-12.72 -6.74,-25.12 -8.4,-37.2 -1.59,-12.14 -2.38,-24.57 -2.38,-37.29z" data-fill-palette-color="quaternary"/>
  <rect class="fil2 str0" x="6940.52" y="73.67" width="104.55" height="73.73" rx="8.15" ry="10.7"/>
  <rect class="fil3 str0" x="7060.34" y="73.67" width="104.55" height="73.73" rx="8.15" ry="10.7"/>
  <rect class="fil4 str0" x="7180.17" y="73.67" width="104.55" height="73.73" rx="8.15" ry="10.7"/>
  <rect class="fil5 str0" x="7299.99" y="73.67" width="104.55" height="73.73" rx="8.15" ry="10.7"/>
  <path class="fil0" d="M419.93 117.22c-12.51,-17.46 -36.17,-26.44 -61.28,-35.91 -10.77,-4.08 -21.88,-8.32 -32.75,-13.44 -10.97,-5.18 -21.74,-11.85 -32.23,-18.24 -21.3,-13.11 -43.33,-26.66 -65.7,-26.66 -22.31,0 -44.34,13.55 -65.65,26.66 -10.48,6.45 -21.31,13.11 -32.27,18.29 -10.82,5.12 -21.98,9.31 -32.76,13.44 -25.1,9.53 -48.77,18.51 -61.27,35.92 -16.69,23.3 -16.3,57.84 -15.92,94.36 0.05,5.51 0.1,10.96 0.1,16.36 0,5.4 -0.05,10.85 -0.15,16.36 -0.38,36.58 -0.77,71.06 15.92,94.42 12.51,17.41 36.17,26.38 61.23,35.91 10.77,4.08 21.88,8.32 32.8,13.44 10.97,5.18 21.74,11.79 32.18,18.24 21.35,13.16 43.38,26.72 65.7,26.72 22.36,0 44.39,-13.56 65.7,-26.67 10.48,-6.44 21.25,-13.11 32.22,-18.23 10.82,-5.12 21.89,-9.31 32.61,-13.39 25.25,-9.58 48.92,-18.56 61.42,-35.97 16.69,-23.3 16.3,-57.84 15.92,-94.36 -0.05,-5.56 -0.15,-11.02 -0.15,-16.41 0,-5.4 0.05,-10.86 0.15,-16.31 0.53,-36.69 0.91,-71.23 -15.82,-94.53l0 0zm15.48 -14.54c-22.41,-31.29 -65.26,-38.73 -101.86,-56.02 -32.76,-15.43 -66.09,-46.66 -105.53,-46.66 -39.44,0 -72.77,31.23 -105.52,46.66 -36.65,17.29 -79.46,24.73 -101.87,56.02 -24.34,33.93 -20.39,81.8 -20.39,125.32 0,43.46 -3.95,91.39 20.34,125.32 22.41,31.29 65.27,38.73 101.87,56.02 32.75,15.48 66.08,46.66 105.52,46.66 39.44,0 72.77,-31.18 105.53,-46.66 36.65,-17.29 79.45,-24.73 101.86,-56.02 24.29,-33.93 20.35,-81.8 20.35,-125.32 0.1,-43.52 4.04,-91.39 -20.3,-125.32l0 0zm6.16 141.52c0.43,37.89 0.82,73.54 -17.22,98.71 -13.56,18.89 -38,28.2 -63.87,38.01 -10.77,4.08 -21.79,8.26 -32.37,13.27 -10.68,5.02 -21.31,11.57 -31.6,17.91 -22.03,13.55 -44.68,27.48 -68.49,27.48 -23.81,0 -46.46,-13.93 -68.39,-27.43 -10.34,-6.39 -21.02,-12.94 -31.7,-17.96 -10.72,-5.06 -21.74,-9.25 -32.41,-13.27 -25.93,-9.81 -50.36,-19.12 -63.88,-38.01 -17.99,-25.12 -17.6,-60.82 -17.22,-98.6 0.05,-5.51 0.15,-10.91 0.15,-16.31 0,-5.4 -0.05,-10.8 -0.1,-16.31 -0.43,-37.79 -0.82,-73.48 17.22,-98.6 13.56,-18.89 38,-28.15 63.87,-38.01 10.73,-4.08 21.74,-8.26 32.42,-13.27 10.68,-5.07 21.36,-11.63 31.7,-17.96 21.93,-13.5 44.63,-27.49 68.39,-27.49 23.76,0 46.46,13.94 68.39,27.43 10.34,6.39 21.02,12.95 31.7,17.96 10.68,5.07 21.74,9.2 32.37,13.28 25.87,9.8 50.35,19.11 63.87,38.01 18.03,25.17 17.65,60.81 17.22,98.6 -0.05,5.56 -0.15,10.96 -0.15,16.3 0,5.4 0.05,10.8 0.1,16.26l0 0z" text-anchor="none" data-fill-palette-color="tertiary"/>
  <path id="text-0_2" class="fil1" d="M353.85 251.35l0 0c-5.21,-0.22 -9.88,-0.67 -14.02,-1.36 -4.15,-0.66 -8.17,-1.77 -12.03,-3.3 -3.85,-1.52 -7.09,-3.43 -9.73,-5.75 -2.62,-2.31 -4.8,-5.27 -6.53,-8.89 -1.76,-3.63 -2.83,-7.82 -3.23,-12.57l0 0c0,-0.85 0.44,-1.34 1.33,-1.47l0 0c0.27,0.09 0.71,0.14 1.33,0.14l0 0c3.66,0 9.22,-0.09 16.67,-0.27 7.46,-0.18 13.02,-0.27 16.69,-0.27l0 0c0.92,0 1.65,0.29 2.17,0.89 0.52,0.6 0.96,1.33 1.3,2.19 0.33,0.85 0.72,1.71 1.19,2.58 0.46,0.87 1.25,1.6 2.39,2.2 1.12,0.59 2.56,0.89 4.31,0.89l0 0c2.17,0 4.08,-0.61 5.74,-1.84 1.65,-1.21 2.47,-2.85 2.47,-4.91l0 0c0,-1.37 -0.7,-2.64 -2.11,-3.79 -1.41,-1.14 -3.27,-2.07 -5.59,-2.8 -2.31,-0.74 -4.51,-1.36 -6.61,-1.86 -2.1,-0.51 -4.25,-0.95 -6.45,-1.31 -2.2,-0.38 -3.49,-0.61 -3.85,-0.7l0 0c-10.72,-2.91 -18.42,-6.53 -23.12,-10.87 -4.7,-4.32 -7.05,-10.23 -7.05,-17.73l0 0c0,-5.29 0.97,-10.04 2.9,-14.25 1.96,-4.21 4.49,-7.65 7.62,-10.33 3.13,-2.67 6.83,-4.9 11.11,-6.67 4.29,-1.79 8.61,-3.05 12.99,-3.79 4.35,-0.72 8.87,-1.09 13.55,-1.09l0 0c12.39,0 22.28,2.3 29.65,6.89l0 0c2.69,2.69 4.66,4.73 5.91,6.12 1.26,1.39 2.48,3.01 3.66,4.86 1.15,1.86 1.97,3.68 2.44,5.47 0.47,1.79 0.78,3.98 0.95,6.59l0 0 -2.39 2.38c-9.03,0.35 -19.18,0.52 -30.44,0.52l0 0c-1.41,0 -2.54,-0.16 -3.39,-0.46 -0.86,-0.31 -1.44,-0.71 -1.73,-1.2 -0.29,-0.48 -0.58,-0.99 -0.87,-1.51 -0.27,-0.53 -0.53,-1.03 -0.78,-1.52 -0.24,-0.49 -0.74,-0.89 -1.52,-1.19 -0.78,-0.31 -1.81,-0.46 -3.09,-0.46l0 0c-0.35,0 -0.91,0.06 -1.68,0.18 -0.78,0.13 -1.68,0.34 -2.71,0.63 -1.03,0.29 -1.93,0.73 -2.69,1.33 -0.74,0.59 -1.11,1.29 -1.11,2.08l0 0c0,0.98 0.5,1.86 1.49,2.66 1,0.79 2.05,1.36 3.15,1.71 1.1,0.36 2.46,0.75 4.09,1.16 1.63,0.42 2.64,0.69 3.04,0.81l0 0c9.63,2.45 15.36,3.95 17.21,4.5l0 0c9.66,3.06 16.5,7.05 20.52,11.98l0 0c3.7,4.59 5.55,10.35 5.55,17.27l0 0c0,4.19 -0.54,8.01 -1.62,11.47 -1.09,3.43 -2.51,6.34 -4.26,8.72 -1.77,2.39 -3.98,4.5 -6.61,6.35 -2.66,1.86 -5.34,3.34 -8.05,4.44 -2.71,1.1 -5.8,2.03 -9.25,2.79 -3.43,0.74 -6.59,1.28 -9.48,1.6 -2.89,0.34 -6.04,0.6 -9.43,0.76z" data-fill-palette-color="quaternary"/>
  <path id="text-0_3" class="fil1" d="M300.12 222.65l0 0c0,0.79 0.05,2.01 0.14,3.66 0.09,1.66 0.15,3.24 0.19,4.74 0.05,1.5 0.09,3.16 0.11,4.99 0.02,1.84 -0.06,3.49 -0.22,4.96 -0.14,1.48 -0.37,2.87 -0.68,4.17 -0.3,1.3 -0.78,2.3 -1.43,3.01 -0.63,0.7 -1.41,1.06 -2.33,1.06l0 0 -30.2 0c-2.11,-1.63 -3.17,-7.71 -3.17,-18.24l0 0c0,-3.85 0.03,-8.48 0.08,-13.88 0.04,-5.41 0.06,-9.25 0.06,-11.55l0 0 0 -4.63c0,-0.4 -0.04,-1.16 -0.11,-2.28 -0.06,-1.12 -0.06,-2 -0.03,-2.63l0 0c-1.75,6.4 -3.91,15.56 -6.48,27.48 -2.56,11.91 -4.32,19.87 -5.28,23.88l0 0c-0.45,1.23 -2.49,1.85 -6.1,1.85l0 0 -23.42 0c-2.87,0 -4.55,-0.75 -5.04,-2.25l0 0 -6.34 -27.65c-0.58,-2.82 -1.21,-5.76 -1.9,-8.81 -0.69,-3.03 -1.49,-6.49 -2.41,-10.38 -0.92,-3.89 -1.61,-6.76 -2.06,-8.62l0 0c-0.53,14.13 -0.79,24.9 -0.79,32.31l0 0 0 11.65c0,5.21 0.05,9.13 0.14,11.77l0 0c-0.27,0.97 -0.76,1.46 -1.47,1.46l0 0 -6.2 0c-2.6,0 -6.43,0.02 -11.47,0.06 -5.02,0.05 -8.83,0.08 -11.44,0.08l0 0c-2.38,0 -3.57,-0.4 -3.57,-1.2l0 0 0 -98.19c0,-0.4 0.1,-0.75 0.29,-1.03 0.2,-0.29 0.51,-0.52 0.93,-0.68 0.43,-0.15 0.84,-0.26 1.24,-0.35 0.4,-0.1 0.91,-0.15 1.52,-0.17 0.61,-0.01 1.12,-0.04 1.52,-0.08 0.4,-0.02 0.9,-0.02 1.52,0 0.61,0.04 1.01,0.06 1.19,0.06l0 0 7.8 0c12.58,0 21.43,0.17 26.57,0.51 5.15,0.36 9.09,0.54 11.81,0.54l0 0c1.07,5.91 2.75,14.68 5.05,26.32l0 0 5.01 26.35 10.6 -53.48c0,0 0.17,0.05 0.51,0.13 0.36,0.1 0.64,0.14 0.82,0.14l0 0c4.71,0 11.68,-0.06 20.89,-0.19 9.22,-0.13 16.19,-0.19 20.93,-0.19l0 0 9.78 0c1.23,0.13 1.85,1.36 1.85,3.69l0 0c0.97,42.75 1.5,66.62 1.59,71.61z" data-fill-palette-color="quaternary"/>
  <path id="text-0_4" class="fil1" d="M106.11 171.42l0 0c-1.8,0 -3.42,0.42 -4.85,1.27 -1.44,0.83 -2.62,1.85 -3.52,3.04 -0.91,1.19 -1.69,2.79 -2.36,4.8 -0.65,2 -1.13,3.81 -1.44,5.42 -0.3,1.61 -0.55,3.64 -0.73,6.1 -0.18,2.44 -0.28,4.33 -0.3,5.69 -0.02,1.33 -0.02,3.06 -0.02,5.17l0 0c0,2.05 0.07,3.98 0.21,5.8 0.17,1.83 0.5,3.77 1,5.83 0.51,2.04 1.17,3.83 1.98,5.37 0.82,1.52 1.95,2.79 3.39,3.82 1.43,1.05 3.06,1.61 4.91,1.68l0 0c1.95,0 3.67,-0.31 5.17,-0.95 1.5,-0.63 2.76,-1.44 3.77,-2.44 1.01,-0.99 1.87,-2.33 2.58,-4.01 0.7,-1.68 1.24,-3.29 1.62,-4.82 0.38,-1.56 0.67,-3.48 0.87,-5.78 0.2,-2.29 0.32,-4.26 0.35,-5.9 0.06,-1.67 0.08,-3.75 0.08,-6.27l0 0c0,-1.84 -0.05,-3.56 -0.16,-5.15 -0.13,-1.59 -0.31,-3.36 -0.57,-5.31 -0.27,-1.93 -0.71,-3.64 -1.33,-5.12 -0.61,-1.48 -1.36,-2.87 -2.25,-4.17 -0.88,-1.31 -2.04,-2.31 -3.46,-3.01 -1.45,-0.71 -3.09,-1.06 -4.94,-1.06zm-52.66 26.21l0 0 0 -7.26c0.43,-6.18 1.78,-11.82 4.04,-16.92 2.24,-5.09 5.09,-9.38 8.56,-12.87 3.45,-3.49 7.46,-6.43 12.01,-8.84 4.53,-2.4 9.29,-4.15 14.26,-5.26 4.97,-1.1 10.1,-1.65 15.39,-1.65l0 0c2.91,0 5.94,0.24 9.08,0.73 3.16,0.49 6.51,1.26 10.03,2.31 3.52,1.06 6.91,2.62 10.16,4.66 3.24,2.06 5.92,4.48 8.05,7.26l0 0c4.36,5.33 7.52,10.92 9.49,16.75 1.95,5.86 2.93,12.35 2.93,19.49l0 0c0.14,14.93 -3.12,26.93 -9.79,36.02l0 0 -2.9 3.96c-2.56,3.52 -6.23,6.47 -11,8.83 -4.75,2.37 -9.51,4.01 -14.28,4.91 -4.78,0.9 -9.58,1.36 -14.43,1.36l0 0c-5.69,0 -10.94,-0.58 -15.74,-1.74 -4.81,-1.14 -8.96,-2.68 -12.44,-4.63 -3.49,-1.94 -6.6,-4.29 -9.33,-7.08 -2.74,-2.78 -4.98,-5.72 -6.72,-8.81 -1.75,-3.07 -3.19,-6.42 -4.31,-10.05 -1.12,-3.62 -1.91,-7.14 -2.38,-10.57 -0.46,-3.45 -0.68,-6.99 -0.68,-10.6z" data-fill-palette-color="quaternary"/>
  <g>
   <path class="fil6" style="mask:url(#id0)" d="M194.1 258.98l-21.09 0 0 -2.9 21.09 0 0 0 0 2.9zm5.76 2.86l-2.91 0 0 0 -0.01 -0.15 -0.01 -0.14 -0.02 -0.14 -0.02 -0.14 -0.03 -0.14 -0.04 -0.13 -0.04 -0.14 -0.06 -0.13 -0.05 -0.12 -0.07 -0.13 -0.07 -0.12 -0.07 -0.11 -0.08 -0.11 -0.09 -0.11 -0.09 -0.11 -0.09 -0.1 -0.1 -0.09 -0.11 -0.1 -0.11 -0.08 -0.11 -0.08 -0.11 -0.07 -0.12 -0.07 -0.13 -0.07 -0.12 -0.05 -0.13 -0.05 -0.13 -0.05 -0.14 -0.04 -0.13 -0.03 -0.14 -0.03 -0.14 -0.01 -0.15 -0.01 -0.14 -0.01 0 -2.9 0.29 0.01 0.29 0.02 0.29 0.03 0.28 0.06 0.29 0.06 0.27 0.08 0.27 0.09 0.26 0.1 0.26 0.12 0.25 0.13 0.24 0.14 0.23 0.15 0.23 0.16 0.21 0.17 0.21 0.18 0.2 0.19 0.19 0.2 0.18 0.21 0.18 0.22 0.16 0.22 0.15 0.24 0.14 0.24 0.12 0.25 0.12 0.25 0.1 0.27 0.09 0.26 0.08 0.27 0.07 0.28 0.05 0.29 0.03 0.29 0.03 0.29 0 0.29 0 0zm-2.91 60.51l0 -60.51 2.91 0 0 60.51 0 0 -2.91 0zm-2.85 5.77l0 -2.91 0 0 0.14 0 0.15 -0.01 0.14 -0.02 0.14 -0.03 0.13 -0.03 0.14 -0.04 0.13 -0.04 0.13 -0.05 0.12 -0.06 0.13 -0.06 0.12 -0.07 0.11 -0.08 0.11 -0.07 0.11 -0.09 0.11 -0.09 0.1 -0.1 0.09 -0.1 0.09 -0.1 0.09 -0.11 0.08 -0.11 0.07 -0.12 0.07 -0.12 0.07 -0.12 0.05 -0.13 0.06 -0.13 0.04 -0.13 0.04 -0.14 0.03 -0.13 0.02 -0.14 0.02 -0.14 0.01 -0.15 0.01 -0.15 2.91 0 0 0.3 -0.03 0.29 -0.03 0.28 -0.05 0.29 -0.07 0.28 -0.08 0.27 -0.09 0.27 -0.1 0.26 -0.12 0.26 -0.12 0.25 -0.14 0.24 -0.15 0.23 -0.16 0.23 -0.18 0.22 -0.18 0.2 -0.19 0.2 -0.2 0.19 -0.21 0.18 -0.21 0.18 -0.23 0.16 -0.23 0.15 -0.24 0.14 -0.25 0.12 -0.26 0.12 -0.26 0.1 -0.27 0.09 -0.27 0.08 -0.29 0.07 -0.28 0.05 -0.29 0.04 -0.29 0.02 -0.29 0.01 0 0zm-21.09 -2.91l21.09 0 0 2.91 -21.09 0 0 0 0 -2.91zm-5.77 -2.86l2.91 0 0 0 0.01 0.15 0.01 0.15 0.02 0.14 0.02 0.14 0.03 0.13 0.04 0.14 0.05 0.13 0.05 0.13 0.06 0.13 0.06 0.12 0.07 0.12 0.07 0.12 0.08 0.11 0.09 0.11 0.09 0.1 0.1 0.1 0.09 0.1 0.11 0.09 0.11 0.09 0.11 0.07 0.12 0.08 0.12 0.07 0.12 0.06 0.13 0.06 0.12 0.05 0.14 0.04 0.13 0.04 0.14 0.03 0.13 0.03 0.14 0.02 0.15 0.01 0.15 0 0 2.91 -0.3 -0.01 -0.29 -0.02 -0.29 -0.04 -0.28 -0.05 -0.29 -0.07 -0.27 -0.08 -0.27 -0.09 -0.26 -0.1 -0.25 -0.12 -0.25 -0.12 -0.24 -0.14 -0.24 -0.15 -0.22 -0.16 -0.22 -0.18 -0.21 -0.18 -0.2 -0.19 -0.19 -0.2 -0.18 -0.2 -0.17 -0.22 -0.16 -0.23 -0.15 -0.23 -0.14 -0.24 -0.13 -0.25 -0.12 -0.26 -0.1 -0.26 -0.09 -0.27 -0.08 -0.27 -0.06 -0.28 -0.06 -0.29 -0.03 -0.28 -0.02 -0.29 -0.01 -0.3 0 0zm2.91 -60.51l0 60.51 -2.91 0 0 -60.51 0 0 2.91 0zm2.86 -5.76l0 2.9 0 0 -0.15 0.01 -0.15 0.01 -0.14 0.01 -0.13 0.03 -0.14 0.03 -0.13 0.04 -0.14 0.05 -0.12 0.05 -0.13 0.05 -0.12 0.07 -0.12 0.07 -0.12 0.07 -0.11 0.08 -0.11 0.08 -0.11 0.1 -0.09 0.09 -0.1 0.1 -0.09 0.11 -0.09 0.11 -0.08 0.11 -0.07 0.11 -0.07 0.12 -0.06 0.13 -0.06 0.12 -0.05 0.13 -0.05 0.14 -0.04 0.13 -0.03 0.14 -0.02 0.14 -0.02 0.14 -0.01 0.14 -0.01 0.15 -2.91 0 0.01 -0.29 0.02 -0.29 0.03 -0.29 0.06 -0.29 0.06 -0.28 0.08 -0.27 0.09 -0.26 0.1 -0.27 0.12 -0.25 0.13 -0.25 0.14 -0.24 0.15 -0.24 0.16 -0.22 0.17 -0.22 0.18 -0.21 0.19 -0.2 0.2 -0.19 0.21 -0.18 0.22 -0.17 0.22 -0.16 0.24 -0.15 0.24 -0.14 0.25 -0.13 0.25 -0.12 0.26 -0.1 0.27 -0.09 0.27 -0.08 0.29 -0.06 0.28 -0.06 0.29 -0.03 0.29 -0.02 0.3 -0.01 0 0z"/>
   <path id="_1" class="fil2" style="mask:url(#id2)" d="M173.01 257.53l21.09 0c2.37,0 4.31,1.94 4.31,4.31l0 60.51c0,2.38 -1.94,4.31 -4.31,4.31l-21.09 0c-2.37,0 -4.31,-1.93 -4.31,-4.31l0 -60.51c0,-2.37 1.94,-4.31 4.31,-4.31z"/>
  </g>
  <g>
   <path class="fil6" style="mask:url(#id4)" d="M207.06 258.98l0 -2.9 21.09 0 0 2.9 -21.09 0zm-5.77 2.86l0 0 0.01 -0.29 0.02 -0.29 0.04 -0.29 0.05 -0.29 0.06 -0.28 0.08 -0.27 0.09 -0.26 0.11 -0.27 0.11 -0.25 0.13 -0.25 0.14 -0.24 0.15 -0.24 0.16 -0.22 0.17 -0.22 0.18 -0.21 0.19 -0.2 0.2 -0.19 0.21 -0.18 0.22 -0.17 0.22 -0.16 0.24 -0.15 0.24 -0.14 0.25 -0.13 0.25 -0.12 0.27 -0.1 0.26 -0.09 0.27 -0.08 0.29 -0.06 0.28 -0.06 0.29 -0.03 0.29 -0.02 0.3 -0.01 0 2.9 -0.15 0.01 -0.14 0.01 -0.14 0.01 -0.14 0.03 -0.14 0.03 -0.13 0.04 -0.14 0.05 -0.12 0.05 -0.13 0.05 -0.12 0.07 -0.12 0.07 -0.12 0.07 -0.11 0.08 -0.11 0.08 -0.1 0.1 -0.1 0.09 -0.1 0.1 -0.09 0.11 -0.09 0.11 -0.07 0.11 -0.08 0.11 -0.07 0.12 -0.06 0.13 -0.06 0.12 -0.05 0.13 -0.04 0.14 -0.04 0.13 -0.04 0.14 -0.02 0.14 -0.02 0.14 -0.01 0.14 0 0.15 0 0 -2.92 0zm2.92 60.51l-2.92 0 0 -60.51 2.92 0 0 60.51zm2.85 5.77l0 0 -0.3 -0.01 -0.29 -0.02 -0.29 -0.04 -0.28 -0.05 -0.29 -0.07 -0.27 -0.08 -0.26 -0.09 -0.27 -0.1 -0.25 -0.12 -0.25 -0.12 -0.24 -0.14 -0.24 -0.15 -0.22 -0.16 -0.22 -0.18 -0.21 -0.18 -0.2 -0.19 -0.19 -0.2 -0.18 -0.2 -0.17 -0.22 -0.16 -0.23 -0.15 -0.23 -0.14 -0.24 -0.13 -0.25 -0.11 -0.26 -0.11 -0.26 -0.09 -0.27 -0.08 -0.27 -0.06 -0.28 -0.05 -0.29 -0.04 -0.28 -0.02 -0.29 -0.01 -0.3 2.92 0 0 0.15 0.01 0.15 0.02 0.14 0.02 0.14 0.04 0.13 0.04 0.14 0.04 0.13 0.05 0.13 0.06 0.13 0.06 0.12 0.07 0.12 0.08 0.12 0.07 0.11 0.09 0.11 0.09 0.1 0.1 0.1 0.1 0.1 0.1 0.09 0.11 0.09 0.11 0.07 0.12 0.08 0.12 0.07 0.12 0.06 0.13 0.06 0.12 0.05 0.14 0.04 0.13 0.04 0.14 0.03 0.14 0.03 0.14 0.02 0.14 0.01 0.15 0 0 0 0 2.91zm21.09 -2.91l0 2.91 -21.09 0 0 -2.91 21.09 0zm5.76 -2.86l0 0 0 0.3 -0.02 0.29 -0.04 0.28 -0.05 0.29 -0.07 0.28 -0.07 0.27 -0.1 0.27 -0.1 0.26 -0.11 0.26 -0.13 0.25 -0.14 0.24 -0.15 0.23 -0.16 0.23 -0.18 0.22 -0.18 0.2 -0.19 0.2 -0.2 0.19 -0.21 0.18 -0.21 0.18 -0.23 0.16 -0.23 0.15 -0.24 0.14 -0.25 0.12 -0.26 0.12 -0.26 0.1 -0.27 0.09 -0.27 0.08 -0.28 0.07 -0.29 0.05 -0.29 0.04 -0.29 0.02 -0.29 0.01 0 -2.91 0.14 0 0.15 -0.01 0.14 -0.02 0.14 -0.03 0.13 -0.03 0.14 -0.04 0.13 -0.04 0.13 -0.05 0.13 -0.06 0.12 -0.06 0.12 -0.07 0.11 -0.08 0.11 -0.07 0.11 -0.09 0.11 -0.09 0.1 -0.1 0.09 -0.1 0.1 -0.1 0.08 -0.11 0.08 -0.11 0.07 -0.12 0.07 -0.12 0.07 -0.12 0.05 -0.13 0.06 -0.13 0.04 -0.13 0.04 -0.14 0.03 -0.13 0.03 -0.14 0.01 -0.14 0.02 -0.15 0 -0.15 0 0 2.91 0zm-2.91 -60.51l2.91 0 0 60.51 -2.91 0 0 -60.51zm-2.85 -5.76l0 0 0.29 0.01 0.29 0.02 0.29 0.03 0.29 0.06 0.28 0.06 0.27 0.08 0.27 0.09 0.26 0.1 0.26 0.12 0.25 0.13 0.24 0.14 0.23 0.15 0.23 0.16 0.21 0.17 0.21 0.18 0.2 0.19 0.2 0.2 0.18 0.21 0.17 0.22 0.16 0.22 0.15 0.24 0.14 0.24 0.13 0.25 0.11 0.25 0.1 0.27 0.1 0.26 0.07 0.27 0.07 0.28 0.05 0.29 0.04 0.29 0.02 0.29 0 0.29 -2.91 0 0 -0.15 -0.02 -0.14 -0.01 -0.14 -0.03 -0.14 -0.03 -0.14 -0.04 -0.13 -0.04 -0.14 -0.06 -0.13 -0.05 -0.12 -0.07 -0.13 -0.07 -0.12 -0.07 -0.11 -0.08 -0.11 -0.09 -0.11 -0.09 -0.11 -0.09 -0.1 -0.1 -0.09 -0.11 -0.1 -0.11 -0.08 -0.11 -0.08 -0.11 -0.07 -0.12 -0.07 -0.12 -0.07 -0.13 -0.05 -0.13 -0.05 -0.13 -0.05 -0.14 -0.04 -0.13 -0.03 -0.14 -0.03 -0.14 -0.01 -0.15 -0.01 -0.14 -0.01 0 0 0 -2.9z"/>
   <path id="_1_5" class="fil3" style="mask:url(#id6)" d="M228.15 257.53l-21.09 0c-2.37,0 -4.31,1.94 -4.31,4.31l0 60.51c0,2.38 1.94,4.31 4.31,4.31l21.09 0c2.37,0 4.31,-1.93 4.31,-4.31l0 -60.51c0,-2.37 -1.94,-4.31 -4.31,-4.31z"/>
  </g>
  <g>
   <path class="fil6" style="mask:url(#id8)" d="M262.2 258.98l-21.09 0 0 -2.9 21.09 0 0 0 0 2.9zm5.77 2.86l-2.92 0 0 0 0 -0.15 -0.01 -0.14 -0.02 -0.14 -0.03 -0.14 -0.03 -0.14 -0.04 -0.13 -0.04 -0.14 -0.05 -0.13 -0.06 -0.12 -0.06 -0.13 -0.07 -0.12 -0.08 -0.11 -0.08 -0.11 -0.08 -0.11 -0.1 -0.11 -0.09 -0.1 -0.1 -0.09 -0.11 -0.1 -0.1 -0.08 -0.12 -0.08 -0.11 -0.07 -0.12 -0.07 -0.12 -0.07 -0.13 -0.05 -0.13 -0.05 -0.13 -0.05 -0.14 -0.04 -0.13 -0.03 -0.14 -0.03 -0.14 -0.01 -0.15 -0.01 -0.14 -0.01 0 -2.9 0.29 0.01 0.29 0.02 0.29 0.03 0.29 0.06 0.28 0.06 0.27 0.08 0.27 0.09 0.26 0.1 0.26 0.12 0.25 0.13 0.24 0.14 0.23 0.15 0.23 0.16 0.22 0.17 0.2 0.18 0.21 0.19 0.19 0.2 0.18 0.21 0.17 0.22 0.16 0.22 0.15 0.24 0.14 0.24 0.13 0.25 0.11 0.25 0.11 0.27 0.09 0.26 0.07 0.27 0.07 0.28 0.05 0.29 0.04 0.29 0.02 0.29 0.01 0.29 0 0zm-2.92 60.51l0 -60.51 2.92 0 0 60.51 0 0 -2.92 0zm-2.85 5.77l0 -2.91 0 0 0.14 0 0.15 -0.01 0.14 -0.02 0.14 -0.03 0.13 -0.03 0.14 -0.04 0.13 -0.04 0.13 -0.05 0.13 -0.06 0.12 -0.06 0.12 -0.07 0.11 -0.08 0.12 -0.07 0.1 -0.09 0.11 -0.09 0.1 -0.1 0.1 -0.1 0.09 -0.1 0.08 -0.11 0.08 -0.11 0.08 -0.12 0.06 -0.12 0.07 -0.12 0.06 -0.13 0.05 -0.13 0.04 -0.13 0.04 -0.14 0.03 -0.13 0.03 -0.14 0.02 -0.14 0.01 -0.15 0 -0.15 2.92 0 -0.01 0.3 -0.02 0.29 -0.04 0.28 -0.05 0.29 -0.07 0.28 -0.07 0.27 -0.09 0.27 -0.11 0.26 -0.11 0.26 -0.13 0.25 -0.14 0.24 -0.15 0.23 -0.16 0.23 -0.17 0.22 -0.18 0.2 -0.19 0.2 -0.21 0.19 -0.2 0.18 -0.22 0.18 -0.23 0.16 -0.23 0.15 -0.24 0.14 -0.25 0.12 -0.26 0.12 -0.26 0.1 -0.27 0.09 -0.27 0.08 -0.28 0.07 -0.29 0.05 -0.29 0.04 -0.29 0.02 -0.29 0.01 0 0zm-21.09 -2.91l21.09 0 0 2.91 -21.09 0 0 0 0 -2.91zm-5.77 -2.86l2.92 0 0 0 0 0.15 0.01 0.15 0.02 0.14 0.02 0.14 0.04 0.13 0.04 0.14 0.04 0.13 0.05 0.13 0.06 0.13 0.06 0.12 0.07 0.12 0.08 0.12 0.08 0.11 0.08 0.11 0.09 0.1 0.1 0.1 0.1 0.1 0.1 0.09 0.11 0.09 0.11 0.07 0.12 0.08 0.12 0.07 0.12 0.06 0.13 0.06 0.13 0.05 0.13 0.04 0.14 0.04 0.13 0.03 0.14 0.03 0.14 0.02 0.14 0.01 0.15 0 0 2.91 -0.29 -0.01 -0.3 -0.02 -0.28 -0.04 -0.29 -0.05 -0.28 -0.07 -0.27 -0.08 -0.27 -0.09 -0.27 -0.1 -0.25 -0.12 -0.25 -0.12 -0.24 -0.14 -0.24 -0.15 -0.22 -0.16 -0.22 -0.18 -0.21 -0.18 -0.2 -0.19 -0.19 -0.2 -0.18 -0.2 -0.17 -0.22 -0.16 -0.23 -0.15 -0.23 -0.14 -0.24 -0.13 -0.25 -0.11 -0.26 -0.11 -0.26 -0.09 -0.27 -0.08 -0.27 -0.06 -0.28 -0.05 -0.29 -0.04 -0.28 -0.02 -0.29 -0.01 -0.3 0 0zm2.92 -60.51l0 60.51 -2.92 0 0 -60.51 0 0 2.92 0zm2.85 -5.76l0 2.9 0 0 -0.15 0.01 -0.14 0.01 -0.14 0.01 -0.14 0.03 -0.13 0.03 -0.14 0.04 -0.13 0.05 -0.13 0.05 -0.13 0.05 -0.12 0.07 -0.12 0.07 -0.12 0.07 -0.11 0.08 -0.11 0.08 -0.1 0.1 -0.1 0.09 -0.1 0.1 -0.09 0.11 -0.08 0.11 -0.08 0.11 -0.08 0.11 -0.07 0.12 -0.06 0.13 -0.06 0.12 -0.05 0.13 -0.04 0.14 -0.04 0.13 -0.04 0.14 -0.02 0.14 -0.02 0.14 -0.01 0.14 0 0.15 -2.92 0 0.01 -0.29 0.02 -0.29 0.04 -0.29 0.05 -0.29 0.06 -0.28 0.08 -0.27 0.09 -0.26 0.11 -0.27 0.11 -0.25 0.13 -0.25 0.14 -0.24 0.15 -0.24 0.16 -0.22 0.17 -0.22 0.18 -0.21 0.19 -0.2 0.2 -0.19 0.21 -0.18 0.22 -0.17 0.22 -0.16 0.24 -0.15 0.24 -0.14 0.25 -0.13 0.25 -0.12 0.27 -0.1 0.27 -0.09 0.27 -0.08 0.28 -0.06 0.29 -0.06 0.28 -0.03 0.3 -0.02 0.29 -0.01 0 0z"/>
   <path id="_1_6" class="fil4" style="mask:url(#id10)" d="M241.11 257.53l21.09 0c2.37,0 4.31,1.94 4.31,4.31l0 60.51c0,2.38 -1.94,4.31 -4.31,4.31l-21.09 0c-2.37,0 -4.31,-1.93 -4.31,-4.31l0 -60.51c0,-2.37 1.94,-4.31 4.31,-4.31z"/>
  </g>
  <g>
   <path class="fil6" style="mask:url(#id12)" d="M275.16 258.98l0 -2.9 21.09 0 0 2.9 -21.09 0zm-5.77 2.86l0 0 0.01 -0.29 0.02 -0.29 0.04 -0.29 0.05 -0.29 0.07 -0.28 0.07 -0.27 0.1 -0.26 0.1 -0.27 0.11 -0.25 0.13 -0.25 0.14 -0.24 0.15 -0.24 0.16 -0.22 0.17 -0.22 0.18 -0.21 0.19 -0.2 0.21 -0.19 0.2 -0.18 0.22 -0.17 0.23 -0.16 0.23 -0.15 0.24 -0.14 0.25 -0.13 0.26 -0.12 0.26 -0.1 0.27 -0.09 0.27 -0.08 0.28 -0.06 0.29 -0.06 0.29 -0.03 0.29 -0.02 0.29 -0.01 0 2.9 -0.14 0.01 -0.15 0.01 -0.14 0.01 -0.14 0.03 -0.13 0.03 -0.14 0.04 -0.13 0.05 -0.13 0.05 -0.13 0.05 -0.12 0.07 -0.12 0.07 -0.11 0.07 -0.11 0.08 -0.11 0.08 -0.11 0.1 -0.1 0.09 -0.09 0.1 -0.1 0.11 -0.08 0.11 -0.08 0.11 -0.07 0.11 -0.07 0.12 -0.07 0.13 -0.06 0.12 -0.05 0.13 -0.04 0.14 -0.04 0.13 -0.03 0.14 -0.03 0.14 -0.02 0.14 -0.01 0.14 0 0.15 0 0 -2.92 0zm2.92 60.51l-2.92 0 0 -60.51 2.92 0 0 60.51zm2.85 5.77l0 0 -0.29 -0.01 -0.29 -0.02 -0.29 -0.04 -0.29 -0.05 -0.28 -0.07 -0.27 -0.08 -0.27 -0.09 -0.26 -0.1 -0.26 -0.12 -0.25 -0.12 -0.24 -0.14 -0.23 -0.15 -0.23 -0.16 -0.22 -0.18 -0.2 -0.18 -0.21 -0.19 -0.18 -0.2 -0.19 -0.2 -0.17 -0.22 -0.16 -0.23 -0.15 -0.23 -0.14 -0.24 -0.13 -0.25 -0.11 -0.26 -0.1 -0.26 -0.1 -0.27 -0.07 -0.27 -0.07 -0.28 -0.05 -0.29 -0.04 -0.28 -0.02 -0.29 -0.01 -0.3 2.92 0 0 0.15 0.01 0.15 0.02 0.14 0.03 0.14 0.03 0.13 0.04 0.14 0.04 0.13 0.05 0.13 0.06 0.13 0.07 0.12 0.07 0.12 0.07 0.12 0.08 0.11 0.08 0.11 0.09 0.1 0.1 0.1 0.1 0.1 0.11 0.09 0.11 0.09 0.11 0.07 0.11 0.08 0.12 0.07 0.12 0.06 0.13 0.06 0.13 0.05 0.13 0.04 0.14 0.04 0.13 0.03 0.14 0.03 0.14 0.02 0.15 0.01 0.14 0 0 0 0 2.91zm21.09 -2.91l0 2.91 -21.09 0 0 -2.91 21.09 0zm5.77 -2.86l0 0 -0.01 0.3 -0.02 0.29 -0.04 0.28 -0.05 0.29 -0.06 0.28 -0.08 0.27 -0.09 0.27 -0.11 0.26 -0.11 0.26 -0.13 0.25 -0.14 0.24 -0.15 0.23 -0.16 0.23 -0.17 0.22 -0.18 0.2 -0.19 0.2 -0.2 0.19 -0.21 0.18 -0.22 0.18 -0.22 0.16 -0.24 0.15 -0.24 0.14 -0.25 0.12 -0.25 0.12 -0.27 0.1 -0.26 0.09 -0.28 0.08 -0.28 0.07 -0.28 0.05 -0.29 0.04 -0.29 0.02 -0.3 0.01 0 -2.91 0.15 0 0.14 -0.01 0.14 -0.02 0.14 -0.03 0.14 -0.03 0.13 -0.04 0.13 -0.04 0.13 -0.05 0.13 -0.06 0.12 -0.06 0.12 -0.07 0.12 -0.08 0.11 -0.07 0.11 -0.09 0.1 -0.09 0.1 -0.1 0.1 -0.1 0.09 -0.1 0.08 -0.11 0.08 -0.11 0.08 -0.12 0.07 -0.12 0.06 -0.12 0.06 -0.13 0.05 -0.13 0.04 -0.13 0.04 -0.14 0.04 -0.13 0.02 -0.14 0.02 -0.14 0.01 -0.15 0 -0.15 0 0 2.92 0zm-2.92 -60.51l2.92 0 0 60.51 -2.92 0 0 -60.51zm-2.85 -5.76l0 0 0.3 0.01 0.29 0.02 0.29 0.03 0.28 0.06 0.28 0.06 0.28 0.08 0.26 0.09 0.27 0.1 0.25 0.12 0.25 0.13 0.24 0.14 0.24 0.15 0.22 0.16 0.22 0.17 0.21 0.18 0.2 0.19 0.19 0.2 0.18 0.21 0.17 0.22 0.16 0.22 0.15 0.24 0.14 0.24 0.13 0.25 0.11 0.25 0.11 0.27 0.09 0.26 0.08 0.27 0.06 0.28 0.05 0.29 0.04 0.29 0.02 0.29 0.01 0.29 -2.92 0 0 -0.15 -0.01 -0.14 -0.02 -0.14 -0.02 -0.14 -0.04 -0.14 -0.04 -0.13 -0.04 -0.14 -0.05 -0.13 -0.06 -0.12 -0.06 -0.13 -0.07 -0.12 -0.08 -0.11 -0.08 -0.11 -0.08 -0.11 -0.09 -0.11 -0.1 -0.1 -0.1 -0.09 -0.1 -0.1 -0.11 -0.08 -0.11 -0.08 -0.12 -0.07 -0.12 -0.07 -0.12 -0.07 -0.13 -0.05 -0.13 -0.05 -0.13 -0.05 -0.13 -0.04 -0.14 -0.03 -0.14 -0.03 -0.14 -0.01 -0.14 -0.01 -0.15 -0.01 0 0 0 -2.9z"/>
   <path id="_1_7" class="fil5" style="mask:url(#id14)" d="M296.25 257.53l-21.09 0c-2.37,0 -4.31,1.94 -4.31,4.31l0 60.51c0,2.38 1.94,4.31 4.31,4.31l21.09 0c2.37,0 4.31,-1.93 4.31,-4.31l0 -60.51c0,-2.37 -1.94,-4.31 -4.31,-4.31z"/>
  </g>
 </g>
</svg>
